<svg xmlns="http://www.w3.org/2000/svg" viewBox="0 0 760 420" width="760" height="420"><defs><marker id="arr" markerUnits="userSpaceOnUse" viewBox="0 0 10 10" refX="9" refY="5" markerWidth="22" markerHeight="20" orient="auto-start-reverse"><path d="M0,0 L10,5 L0,10 Z" fill="#6b7280"/></marker></defs><defs><radialGradient id="mf0-cs"><stop offset="0" stop-color="#0f172a" stop-opacity="0.16"/><stop offset="0.6" stop-color="#0f172a" stop-opacity="0.056"/><stop offset="1" stop-color="#0f172a" stop-opacity="0"/></radialGradient></defs><ellipse cx="380.0" cy="100.0" rx="130.0" ry="11.0" fill="url(#mf0-cs)"/><defs><linearGradient id="mf0" x1="0" y1="0" x2="0.25" y2="1"><stop offset="0" stop-color="#f8ecd2"/><stop offset="1" stop-color="#cebb8f"/></linearGradient></defs><rect x="250.0" y="20.0" width="260.0" height="76.0" rx="24.0" fill="url(#mf0)"/><path d="M266.8,22.6 L493.2,22.6" stroke="#fdf9f2" stroke-width="2.8" stroke-linecap="round" opacity="0.75" fill="none"/><text x="380.0" y="70.0" font-family="Lato, 'Noto Sans', 'Liberation Sans', Helvetica, Arial, sans-serif" font-size="36" font-weight="bold" text-anchor="middle" fill="#5b4a1f">DIRAC client</text><defs><radialGradient id="mf1-cs"><stop offset="0" stop-color="#0f172a" stop-opacity="0.16"/><stop offset="0.6" stop-color="#0f172a" stop-opacity="0.056"/><stop offset="1" stop-color="#0f172a" stop-opacity="0"/></radialGradient></defs><ellipse cx="175.0" cy="254.0" rx="135.0" ry="11.0" fill="url(#mf1-cs)"/><defs><linearGradient id="mf1" x1="0" y1="0" x2="0.25" y2="1"><stop offset="0" stop-color="#d6e1f1"/><stop offset="1" stop-color="#95a8c3"/></linearGradient></defs><rect x="40.0" y="170.0" width="270.0" height="80.0" rx="26.0" fill="url(#mf1)"/><path d="M58.2,172.6 L291.8,172.6" stroke="#f3f6fb" stroke-width="2.8" stroke-linecap="round" opacity="0.75" fill="none"/><text x="175.0" y="222.0" font-family="Lato, 'Noto Sans', 'Liberation Sans', Helvetica, Arial, sans-serif" font-size="32" font-weight="bold" text-anchor="middle" fill="#25405f">DIRAC service</text><defs><radialGradient id="mf2-cs"><stop offset="0" stop-color="#0f172a" stop-opacity="0.16"/><stop offset="0.6" stop-color="#0f172a" stop-opacity="0.056"/><stop offset="1" stop-color="#0f172a" stop-opacity="0"/></radialGradient></defs><ellipse cx="585.0" cy="254.0" rx="135.0" ry="11.0" fill="url(#mf2-cs)"/><defs><linearGradient id="mf2" x1="0" y1="0" x2="0.25" y2="1"><stop offset="0" stop-color="#c2e6e1"/><stop offset="1" stop-color="#72b0a8"/></linearGradient></defs><rect x="450.0" y="170.0" width="270.0" height="80.0" rx="26.0" fill="url(#mf2)"/><path d="M468.2,172.6 L701.8,172.6" stroke="#edf8f6" stroke-width="2.8" stroke-linecap="round" opacity="0.75" fill="none"/><text x="585.0" y="222.0" font-family="Lato, 'Noto Sans', 'Liberation Sans', Helvetica, Arial, sans-serif" font-size="32" font-weight="bold" text-anchor="middle" fill="#1f4a44">DiracX service</text><path d="M330.0,104.0 Q265.0,123.0 212.0,154.8" fill="none" stroke="#6b7280" stroke-width="5" stroke-linecap="round"/><polygon points="200.0,162.0 212.5,144.0 221.8,159.4" fill="#6b7280"/><path d="M430.0,104.0 Q495.0,123.0 548.0,154.8" fill="none" stroke="#6b7280" stroke-width="5" stroke-linecap="round"/><polygon points="560.0,162.0 538.2,159.4 547.5,144.0" fill="#6b7280"/><defs><radialGradient id="mfd0-cs"><stop offset="0" stop-color="#0f172a" stop-opacity="0.18"/><stop offset="0.6" stop-color="#0f172a" stop-opacity="0.063"/><stop offset="1" stop-color="#0f172a" stop-opacity="0"/></radialGradient></defs><ellipse cx="284.0" cy="368.1" rx="34.2" ry="14.0" fill="url(#mfd0-cs)"/><defs><linearGradient id="mfd0" x1="0" y1="0" x2="0" y2="1"><stop offset="0" stop-color="#c2cad5"/><stop offset="1" stop-color="#959ba5"/></linearGradient></defs><path d="M246.0,300.0 A38.0,6.1 0 0 0 322.0,300.0 L322.0,354.0 A38.0,6.1 0 0 1 246.0,354.0 Z" fill="url(#mfd0)"/><ellipse cx="284.0" cy="300.0" rx="38.0" ry="6.1" fill="#dadfe5"/><ellipse cx="284.0" cy="300.0" rx="38.0" ry="6.1" fill="none" stroke="#e9ebf0" stroke-width="2" opacity="0.6"/><defs><radialGradient id="mfd1-cs"><stop offset="0" stop-color="#0f172a" stop-opacity="0.18"/><stop offset="0.6" stop-color="#0f172a" stop-opacity="0.063"/><stop offset="1" stop-color="#0f172a" stop-opacity="0"/></radialGradient></defs><ellipse cx="380.0" cy="368.1" rx="34.2" ry="14.0" fill="url(#mfd1-cs)"/><defs><linearGradient id="mfd1" x1="0" y1="0" x2="0" y2="1"><stop offset="0" stop-color="#c2cad5"/><stop offset="1" stop-color="#959ba5"/></linearGradient></defs><path d="M342.0,300.0 A38.0,6.1 0 0 0 418.0,300.0 L418.0,354.0 A38.0,6.1 0 0 1 342.0,354.0 Z" fill="url(#mfd1)"/><ellipse cx="380.0" cy="300.0" rx="38.0" ry="6.1" fill="#dadfe5"/><ellipse cx="380.0" cy="300.0" rx="38.0" ry="6.1" fill="none" stroke="#e9ebf0" stroke-width="2" opacity="0.6"/><defs><radialGradient id="mfd2-cs"><stop offset="0" stop-color="#0f172a" stop-opacity="0.18"/><stop offset="0.6" stop-color="#0f172a" stop-opacity="0.063"/><stop offset="1" stop-color="#0f172a" stop-opacity="0"/></radialGradient></defs><ellipse cx="476.0" cy="368.1" rx="34.2" ry="14.0" fill="url(#mfd2-cs)"/><defs><linearGradient id="mfd2" x1="0" y1="0" x2="0" y2="1"><stop offset="0" stop-color="#c2cad5"/><stop offset="1" stop-color="#959ba5"/></linearGradient></defs><path d="M438.0,300.0 A38.0,6.1 0 0 0 514.0,300.0 L514.0,354.0 A38.0,6.1 0 0 1 438.0,354.0 Z" fill="url(#mfd2)"/><ellipse cx="476.0" cy="300.0" rx="38.0" ry="6.1" fill="#dadfe5"/><ellipse cx="476.0" cy="300.0" rx="38.0" ry="6.1" fill="none" stroke="#e9ebf0" stroke-width="2" opacity="0.6"/><path d="M175.0,258.0 Q237.5,291.0 286.3,301.1" fill="none" stroke="#6b7280" stroke-width="4" stroke-linecap="round"/><polygon points="300.0,304.0 278.6,308.7 282.3,291.1" fill="#6b7280"/><path d="M585.0,258.0 Q522.5,291.0 473.7,301.1" fill="none" stroke="#6b7280" stroke-width="4" stroke-linecap="round"/><polygon points="460.0,304.0 477.7,291.1 481.4,308.7" fill="#6b7280"/><text x="380.0" y="410.0" font-family="Lato, 'Noto Sans', 'Liberation Sans', Helvetica, Arial, sans-serif" font-size="30" font-weight="normal" font-style="italic" text-anchor="middle" fill="#6b7280">same databases</text></svg>