<svg xmlns="http://www.w3.org/2000/svg" viewBox="0 0 1600 770" width="1600" height="770"><defs><marker id="arr" markerUnits="userSpaceOnUse" viewBox="0 0 10 10" refX="9" refY="5" markerWidth="22" markerHeight="20" orient="auto-start-reverse"><path d="M0,0 L10,5 L0,10 Z" fill="#6b7280"/></marker></defs><rect x="40" y="70" width="640" height="450" rx="26" fill="#eef3fa" stroke="#d3deec" stroke-width="3"/><text x="76.0" y="116.0" font-family="Lato, 'Noto Sans', 'Liberation Sans', Helvetica, Arial, sans-serif" font-size="44" font-weight="bold" text-anchor="start" fill="#6b7280">DIRAC</text><rect x="760" y="70" width="800" height="450" rx="26" fill="#f3f6fa" stroke="#d8e0ea" stroke-width="3"/><text x="796.0" y="116.0" font-family="Lato, 'Noto Sans', 'Liberation Sans', Helvetica, Arial, sans-serif" font-size="44" font-weight="bold" text-anchor="start" fill="#6b7280">DiracX</text><rect x="40" y="580" width="1520" height="170" rx="26" fill="#f6f7f9" stroke="#dde2e9" stroke-width="3"/><defs><radialGradient id="dbk-sh"><stop offset="0" stop-color="#0f172a" stop-opacity="0.2"/><stop offset="0.6" stop-color="#0f172a" stop-opacity="0.070"/><stop offset="1" stop-color="#0f172a" stop-opacity="0"/></radialGradient></defs><ellipse cx="360.0" cy="358.0" rx="85.9" ry="63.2" fill="url(#dbk-sh)"/><defs><linearGradient id="dbk" x1="0" y1="0" x2="1" y2="1"><stop offset="0" stop-color="#f2f5f8"/><stop offset="1" stop-color="#e6ebf2"/></linearGradient><linearGradient id="dbk-l" x1="0" y1="0" x2="0" y2="1"><stop offset="0" stop-color="#e0e6ee"/><stop offset="1" stop-color="#aeb3ba"/></linearGradient><linearGradient id="dbk-r" x1="0" y1="0" x2="0" y2="1"><stop offset="0" stop-color="#c0c5cd"/><stop offset="1" stop-color="#8a8e94"/></linearGradient></defs><defs><clipPath id="cp9"><path d="M336.8,290.2 L428.9,343.4 Q441.1,350.4 441.1,355.8 L441.1,355.8 Q441.1,361.2 428.9,368.2 L407.5,380.6 Q395.3,387.6 383.2,380.6 L291.1,327.4 Q278.9,320.4 278.9,315.0 L278.9,315.0 Q278.9,309.6 291.1,302.6 L312.5,290.2 Q324.7,283.2 336.8,290.2 Z"/></clipPath></defs><g clip-path="url(#cp9)"><polygon points="278.9,320.4 395.3,387.6 395.3,376.8 278.9,309.6" fill="url(#dbk-l)" stroke="none" stroke-width="0" stroke-linejoin="round"/><polygon points="441.1,361.2 395.3,387.6 395.3,376.8 441.1,350.4" fill="url(#dbk-r)" stroke="none" stroke-width="0" stroke-linejoin="round"/><polygon points="324.7,283.2 441.1,350.4 395.3,376.8 278.9,309.6" fill="url(#dbk)" stroke="none" stroke-width="0" stroke-linejoin="round"/><polyline points="278.9,309.6 324.7,283.2 441.1,350.4" fill="none" stroke="#fafbfc" stroke-width="7.0" stroke-linecap="round" stroke-linejoin="round" opacity="0.65"/><polyline points="441.1,350.4 395.3,376.8 278.9,309.6" fill="none" stroke="#f9fafc" stroke-width="4.8999999999999995" stroke-linecap="round" stroke-linejoin="round" opacity="0.45"/><polyline points="395.3,376.8 395.3,387.6" fill="none" stroke="#f1f3f7" stroke-width="3.5" stroke-linecap="round" stroke-linejoin="round" opacity="0.35"/></g><defs><radialGradient id="cs10"><stop offset="0" stop-color="#0f172a" stop-opacity="0.2"/><stop offset="0.6" stop-color="#0f172a" stop-opacity="0.070"/><stop offset="1" stop-color="#0f172a" stop-opacity="0"/></radialGradient></defs><ellipse cx="328.7" cy="311.4" rx="21.7" ry="12.5" fill="url(#cs10)"/><defs><linearGradient id="ct10" x1="0" y1="0" x2="1" y2="1"><stop offset="0" stop-color="#e0e8f4"/><stop offset="1" stop-color="#c4d4eb"/></linearGradient><linearGradient id="cl10" x1="0" y1="0" x2="0" y2="1"><stop offset="0" stop-color="#b2c7e5"/><stop offset="1" stop-color="#8a9cb6"/></linearGradient><linearGradient id="cr10" x1="0" y1="0" x2="0" y2="1"><stop offset="0" stop-color="#98acc8"/><stop offset="1" stop-color="#6f7d91"/></linearGradient></defs><defs><clipPath id="cp10"><path d="M331.9,286.2 L341.3,291.6 Q346.5,294.6 346.5,300.6 L346.5,304.2 Q346.5,310.2 341.3,313.2 L331.9,318.6 Q326.7,321.6 321.5,318.6 L312.2,313.2 Q307.0,310.2 307.0,304.2 L307.0,300.6 Q307.0,294.6 312.2,291.6 L321.5,286.2 Q326.7,283.2 331.9,286.2 Z"/></clipPath></defs><g clip-path="url(#cp10)"><polygon points="307.0,310.2 326.7,321.6 326.7,306.0 307.0,294.6" fill="url(#cl10)" stroke="none" stroke-width="0" stroke-linejoin="round"/><polygon points="346.5,310.2 326.7,321.6 326.7,306.0 346.5,294.6" fill="url(#cr10)" stroke="none" stroke-width="0" stroke-linejoin="round"/><polygon points="326.7,283.2 346.5,294.6 326.7,306.0 307.0,294.6" fill="url(#ct10)" stroke="none" stroke-width="0" stroke-linejoin="round"/><polyline points="307.0,294.6 326.7,283.2 346.5,294.6" fill="none" stroke="#f3f6fb" stroke-width="4.199999999999999" stroke-linecap="round" stroke-linejoin="round" opacity="0.75"/><polyline points="346.5,294.6 326.7,306.0 307.0,294.6" fill="none" stroke="#eff3f9" stroke-width="3.0" stroke-linecap="round" stroke-linejoin="round" opacity="0.45"/><polyline points="326.7,306.0 326.7,321.6" fill="none" stroke="#dae4f2" stroke-width="2.0999999999999996" stroke-linecap="round" stroke-linejoin="round" opacity="0.35"/><defs><radialGradient id="hl10"><stop offset="0" stop-color="#ffffff" stop-opacity="0.55"/><stop offset="1" stop-color="#ffffff" stop-opacity="0"/></radialGradient></defs><ellipse cx="323.8" cy="291.9" rx="11.8" ry="6.4" fill="url(#hl10)"/></g><defs><radialGradient id="cs11"><stop offset="0" stop-color="#0f172a" stop-opacity="0.2"/><stop offset="0.6" stop-color="#0f172a" stop-opacity="0.070"/><stop offset="1" stop-color="#0f172a" stop-opacity="0"/></radialGradient></defs><ellipse cx="357.8" cy="328.2" rx="21.7" ry="12.5" fill="url(#cs11)"/><defs><linearGradient id="ct11" x1="0" y1="0" x2="1" y2="1"><stop offset="0" stop-color="#e0e8f4"/><stop offset="1" stop-color="#c4d4eb"/></linearGradient><linearGradient id="cl11" x1="0" y1="0" x2="0" y2="1"><stop offset="0" stop-color="#b2c7e5"/><stop offset="1" stop-color="#8a9cb6"/></linearGradient><linearGradient id="cr11" x1="0" y1="0" x2="0" y2="1"><stop offset="0" stop-color="#98acc8"/><stop offset="1" stop-color="#6f7d91"/></linearGradient></defs><defs><clipPath id="cp11"><path d="M361.0,303.0 L370.4,308.4 Q375.6,311.4 375.6,317.4 L375.6,321.0 Q375.6,327.0 370.4,330.0 L361.0,335.4 Q355.8,338.4 350.6,335.4 L341.3,330.0 Q336.1,327.0 336.1,321.0 L336.1,317.4 Q336.1,311.4 341.3,308.4 L350.6,303.0 Q355.8,300.0 361.0,303.0 Z"/></clipPath></defs><g clip-path="url(#cp11)"><polygon points="336.1,327.0 355.8,338.4 355.8,322.8 336.1,311.4" fill="url(#cl11)" stroke="none" stroke-width="0" stroke-linejoin="round"/><polygon points="375.6,327.0 355.8,338.4 355.8,322.8 375.6,311.4" fill="url(#cr11)" stroke="none" stroke-width="0" stroke-linejoin="round"/><polygon points="355.8,300.0 375.6,311.4 355.8,322.8 336.1,311.4" fill="url(#ct11)" stroke="none" stroke-width="0" stroke-linejoin="round"/><polyline points="336.1,311.4 355.8,300.0 375.6,311.4" fill="none" stroke="#f3f6fb" stroke-width="4.199999999999999" stroke-linecap="round" stroke-linejoin="round" opacity="0.75"/><polyline points="375.6,311.4 355.8,322.8 336.1,311.4" fill="none" stroke="#eff3f9" stroke-width="3.0" stroke-linecap="round" stroke-linejoin="round" opacity="0.45"/><polyline points="355.8,322.8 355.8,338.4" fill="none" stroke="#dae4f2" stroke-width="2.0999999999999996" stroke-linecap="round" stroke-linejoin="round" opacity="0.35"/><defs><radialGradient id="hl11"><stop offset="0" stop-color="#ffffff" stop-opacity="0.55"/><stop offset="1" stop-color="#ffffff" stop-opacity="0"/></radialGradient></defs><ellipse cx="352.9" cy="308.7" rx="11.8" ry="6.4" fill="url(#hl11)"/></g><defs><radialGradient id="cs12"><stop offset="0" stop-color="#0f172a" stop-opacity="0.2"/><stop offset="0.6" stop-color="#0f172a" stop-opacity="0.070"/><stop offset="1" stop-color="#0f172a" stop-opacity="0"/></radialGradient></defs><ellipse cx="386.9" cy="345.0" rx="21.7" ry="12.5" fill="url(#cs12)"/><defs><linearGradient id="ct12" x1="0" y1="0" x2="1" y2="1"><stop offset="0" stop-color="#e0e8f4"/><stop offset="1" stop-color="#c4d4eb"/></linearGradient><linearGradient id="cl12" x1="0" y1="0" x2="0" y2="1"><stop offset="0" stop-color="#b2c7e5"/><stop offset="1" stop-color="#8a9cb6"/></linearGradient><linearGradient id="cr12" x1="0" y1="0" x2="0" y2="1"><stop offset="0" stop-color="#98acc8"/><stop offset="1" stop-color="#6f7d91"/></linearGradient></defs><defs><clipPath id="cp12"><path d="M390.1,319.8 L399.5,325.2 Q404.7,328.2 404.7,334.2 L404.7,337.8 Q404.7,343.8 399.5,346.8 L390.1,352.2 Q384.9,355.2 379.7,352.2 L370.4,346.8 Q365.2,343.8 365.2,337.8 L365.2,334.2 Q365.2,328.2 370.4,325.2 L379.7,319.8 Q384.9,316.8 390.1,319.8 Z"/></clipPath></defs><g clip-path="url(#cp12)"><polygon points="365.2,343.8 384.9,355.2 384.9,339.6 365.2,328.2" fill="url(#cl12)" stroke="none" stroke-width="0" stroke-linejoin="round"/><polygon points="404.7,343.8 384.9,355.2 384.9,339.6 404.7,328.2" fill="url(#cr12)" stroke="none" stroke-width="0" stroke-linejoin="round"/><polygon points="384.9,316.8 404.7,328.2 384.9,339.6 365.2,328.2" fill="url(#ct12)" stroke="none" stroke-width="0" stroke-linejoin="round"/><polyline points="365.2,328.2 384.9,316.8 404.7,328.2" fill="none" stroke="#f3f6fb" stroke-width="4.199999999999999" stroke-linecap="round" stroke-linejoin="round" opacity="0.75"/><polyline points="404.7,328.2 384.9,339.6 365.2,328.2" fill="none" stroke="#eff3f9" stroke-width="3.0" stroke-linecap="round" stroke-linejoin="round" opacity="0.45"/><polyline points="384.9,339.6 384.9,355.2" fill="none" stroke="#dae4f2" stroke-width="2.0999999999999996" stroke-linecap="round" stroke-linejoin="round" opacity="0.35"/><defs><radialGradient id="hl12"><stop offset="0" stop-color="#ffffff" stop-opacity="0.55"/><stop offset="1" stop-color="#ffffff" stop-opacity="0"/></radialGradient></defs><ellipse cx="382.0" cy="325.5" rx="11.8" ry="6.4" fill="url(#hl12)"/></g><defs><radialGradient id="cs13"><stop offset="0" stop-color="#0f172a" stop-opacity="0.2"/><stop offset="0.6" stop-color="#0f172a" stop-opacity="0.070"/><stop offset="1" stop-color="#0f172a" stop-opacity="0"/></radialGradient></defs><ellipse cx="416.0" cy="361.8" rx="21.7" ry="12.5" fill="url(#cs13)"/><defs><linearGradient id="ct13" x1="0" y1="0" x2="1" y2="1"><stop offset="0" stop-color="#e0e8f4"/><stop offset="1" stop-color="#c4d4eb"/></linearGradient><linearGradient id="cl13" x1="0" y1="0" x2="0" y2="1"><stop offset="0" stop-color="#b2c7e5"/><stop offset="1" stop-color="#8a9cb6"/></linearGradient><linearGradient id="cr13" x1="0" y1="0" x2="0" y2="1"><stop offset="0" stop-color="#98acc8"/><stop offset="1" stop-color="#6f7d91"/></linearGradient></defs><defs><clipPath id="cp13"><path d="M419.2,336.6 L428.6,342.0 Q433.8,345.0 433.8,351.0 L433.8,354.6 Q433.8,360.6 428.6,363.6 L419.2,369.0 Q414.0,372.0 408.8,369.0 L399.5,363.6 Q394.3,360.6 394.3,354.6 L394.3,351.0 Q394.3,345.0 399.5,342.0 L408.8,336.6 Q414.0,333.6 419.2,336.6 Z"/></clipPath></defs><g clip-path="url(#cp13)"><polygon points="394.3,360.6 414.0,372.0 414.0,356.4 394.3,345.0" fill="url(#cl13)" stroke="none" stroke-width="0" stroke-linejoin="round"/><polygon points="433.8,360.6 414.0,372.0 414.0,356.4 433.8,345.0" fill="url(#cr13)" stroke="none" stroke-width="0" stroke-linejoin="round"/><polygon points="414.0,333.6 433.8,345.0 414.0,356.4 394.3,345.0" fill="url(#ct13)" stroke="none" stroke-width="0" stroke-linejoin="round"/><polyline points="394.3,345.0 414.0,333.6 433.8,345.0" fill="none" stroke="#f3f6fb" stroke-width="4.199999999999999" stroke-linecap="round" stroke-linejoin="round" opacity="0.75"/><polyline points="433.8,345.0 414.0,356.4 394.3,345.0" fill="none" stroke="#eff3f9" stroke-width="3.0" stroke-linecap="round" stroke-linejoin="round" opacity="0.45"/><polyline points="414.0,356.4 414.0,372.0" fill="none" stroke="#dae4f2" stroke-width="2.0999999999999996" stroke-linecap="round" stroke-linejoin="round" opacity="0.35"/><defs><radialGradient id="hl13"><stop offset="0" stop-color="#ffffff" stop-opacity="0.55"/><stop offset="1" stop-color="#ffffff" stop-opacity="0"/></radialGradient></defs><ellipse cx="411.1" cy="342.3" rx="11.8" ry="6.4" fill="url(#hl13)"/></g><text x="360.0" y="442.0" font-family="Lato, 'Noto Sans', 'Liberation Sans', Helvetica, Arial, sans-serif" font-size="34" font-weight="bold" text-anchor="middle" fill="#1f2937">DIRAC WMS</text><text x="360.0" y="476.0" font-family="Lato, 'Noto Sans', 'Liberation Sans', Helvetica, Arial, sans-serif" font-size="28" font-weight="normal" text-anchor="middle" fill="#6b7280">a backend, as it is</text><defs><radialGradient id="ts-sh"><stop offset="0" stop-color="#0f172a" stop-opacity="0.2"/><stop offset="0.6" stop-color="#0f172a" stop-opacity="0.070"/><stop offset="1" stop-color="#0f172a" stop-opacity="0"/></radialGradient></defs><ellipse cx="1010.0" cy="328.0" rx="102.4" ry="75.3" fill="url(#ts-sh)"/><defs><linearGradient id="ts" x1="0" y1="0" x2="1" y2="1"><stop offset="0" stop-color="#f0f7f7"/><stop offset="1" stop-color="#e1f0ef"/></linearGradient><linearGradient id="ts-l" x1="0" y1="0" x2="0" y2="1"><stop offset="0" stop-color="#daecea"/><stop offset="1" stop-color="#a9b8b7"/></linearGradient><linearGradient id="ts-r" x1="0" y1="0" x2="0" y2="1"><stop offset="0" stop-color="#bbcbc9"/><stop offset="1" stop-color="#879291"/></linearGradient></defs><defs><clipPath id="cp14"><path d="M979.2,251.2 L1094.5,317.8 Q1106.6,324.8 1106.6,330.4 L1106.6,330.4 Q1106.6,336.0 1094.5,343.0 L1065.1,360.0 Q1053.0,367.0 1040.8,360.0 L925.5,293.4 Q913.4,286.4 913.4,280.8 L913.4,280.8 Q913.4,275.2 925.5,268.2 L954.9,251.2 Q967.0,244.2 979.2,251.2 Z"/></clipPath></defs><g clip-path="url(#cp14)"><polygon points="913.4,286.4 1053.0,367.0 1053.0,355.8 913.4,275.2" fill="url(#ts-l)" stroke="none" stroke-width="0" stroke-linejoin="round"/><polygon points="1106.6,336.0 1053.0,367.0 1053.0,355.8 1106.6,324.8" fill="url(#ts-r)" stroke="none" stroke-width="0" stroke-linejoin="round"/><polygon points="967.0,244.2 1106.6,324.8 1053.0,355.8 913.4,275.2" fill="url(#ts)" stroke="none" stroke-width="0" stroke-linejoin="round"/><polyline points="913.4,275.2 967.0,244.2 1106.6,324.8" fill="none" stroke="#f9fcfc" stroke-width="7.0" stroke-linecap="round" stroke-linejoin="round" opacity="0.65"/><polyline points="1106.6,324.8 1053.0,355.8 913.4,275.2" fill="none" stroke="#f7fbfb" stroke-width="4.8999999999999995" stroke-linecap="round" stroke-linejoin="round" opacity="0.45"/><polyline points="1053.0,355.8 1053.0,367.0" fill="none" stroke="#eef6f6" stroke-width="3.5" stroke-linecap="round" stroke-linejoin="round" opacity="0.35"/></g><defs><radialGradient id="cs15"><stop offset="0" stop-color="#0f172a" stop-opacity="0.2"/><stop offset="0.6" stop-color="#0f172a" stop-opacity="0.070"/><stop offset="1" stop-color="#0f172a" stop-opacity="0"/></radialGradient></defs><ellipse cx="968.0" cy="272.7" rx="20.1" ry="11.6" fill="url(#cs15)"/><defs><linearGradient id="ct15" x1="0" y1="0" x2="1" y2="1"><stop offset="0" stop-color="#d0ece8"/><stop offset="1" stop-color="#a6dbd4"/></linearGradient><linearGradient id="cl15" x1="0" y1="0" x2="0" y2="1"><stop offset="0" stop-color="#8bd0c7"/><stop offset="1" stop-color="#6aa49c"/></linearGradient><linearGradient id="cr15" x1="0" y1="0" x2="0" y2="1"><stop offset="0" stop-color="#74b4ac"/><stop offset="1" stop-color="#54837d"/></linearGradient></defs><defs><clipPath id="cp15"><path d="M971.2,247.8 L979.0,252.4 Q984.2,255.4 984.2,261.4 L984.2,265.5 Q984.2,271.5 979.0,274.5 L971.2,279.0 Q966.0,282.0 960.8,279.0 L952.9,274.5 Q947.7,271.5 947.7,265.5 L947.7,261.4 Q947.7,255.4 952.9,252.4 L960.8,247.8 Q966.0,244.8 971.2,247.8 Z"/></clipPath></defs><g clip-path="url(#cp15)"><polygon points="947.7,271.5 966.0,282.0 966.0,265.9 947.7,255.4" fill="url(#cl15)" stroke="none" stroke-width="0" stroke-linejoin="round"/><polygon points="984.2,271.5 966.0,282.0 966.0,265.9 984.2,255.4" fill="url(#cr15)" stroke="none" stroke-width="0" stroke-linejoin="round"/><polygon points="966.0,244.8 984.2,255.4 966.0,265.9 947.7,255.4" fill="url(#ct15)" stroke="none" stroke-width="0" stroke-linejoin="round"/><polyline points="947.7,255.4 966.0,244.8 984.2,255.4" fill="none" stroke="#edf8f6" stroke-width="4.199999999999999" stroke-linecap="round" stroke-linejoin="round" opacity="0.75"/><polyline points="984.2,255.4 966.0,265.9 947.7,255.4" fill="none" stroke="#e6f5f3" stroke-width="3.0" stroke-linecap="round" stroke-linejoin="round" opacity="0.45"/><polyline points="966.0,265.9 966.0,282.0" fill="none" stroke="#c8e8e4" stroke-width="2.0999999999999996" stroke-linecap="round" stroke-linejoin="round" opacity="0.35"/><defs><radialGradient id="hl15"><stop offset="0" stop-color="#ffffff" stop-opacity="0.55"/><stop offset="1" stop-color="#ffffff" stop-opacity="0"/></radialGradient></defs><ellipse cx="963.2" cy="252.8" rx="11.0" ry="5.9" fill="url(#hl15)"/></g><defs><radialGradient id="cs16"><stop offset="0" stop-color="#0f172a" stop-opacity="0.2"/><stop offset="0.6" stop-color="#0f172a" stop-opacity="0.070"/><stop offset="1" stop-color="#0f172a" stop-opacity="0"/></radialGradient></defs><ellipse cx="991.6" cy="286.4" rx="20.1" ry="11.6" fill="url(#cs16)"/><defs><linearGradient id="ct16" x1="0" y1="0" x2="1" y2="1"><stop offset="0" stop-color="#dbeede"/><stop offset="1" stop-color="#badfc0"/></linearGradient><linearGradient id="cl16" x1="0" y1="0" x2="0" y2="1"><stop offset="0" stop-color="#a5d6ad"/><stop offset="1" stop-color="#7fa986"/></linearGradient><linearGradient id="cr16" x1="0" y1="0" x2="0" y2="1"><stop offset="0" stop-color="#8cba94"/><stop offset="1" stop-color="#66876c"/></linearGradient></defs><defs><clipPath id="cp16"><path d="M994.8,261.5 L1002.7,266.0 Q1007.9,269.0 1007.9,275.0 L1007.9,279.1 Q1007.9,285.1 1002.7,288.1 L994.8,292.7 Q989.6,295.7 984.4,292.7 L976.5,288.1 Q971.3,285.1 971.3,279.1 L971.3,275.0 Q971.3,269.0 976.5,266.0 L984.4,261.5 Q989.6,258.5 994.8,261.5 Z"/></clipPath></defs><g clip-path="url(#cp16)"><polygon points="971.3,285.1 989.6,295.7 989.6,279.5 971.3,269.0" fill="url(#cl16)" stroke="none" stroke-width="0" stroke-linejoin="round"/><polygon points="1007.9,285.1 989.6,295.7 989.6,279.5 1007.9,269.0" fill="url(#cr16)" stroke="none" stroke-width="0" stroke-linejoin="round"/><polygon points="989.6,258.5 1007.9,269.0 989.6,279.5 971.3,269.0" fill="url(#ct16)" stroke="none" stroke-width="0" stroke-linejoin="round"/><polyline points="971.3,269.0 989.6,258.5 1007.9,269.0" fill="none" stroke="#f1f8f2" stroke-width="4.199999999999999" stroke-linecap="round" stroke-linejoin="round" opacity="0.75"/><polyline points="1007.9,269.0 989.6,279.5 971.3,269.0" fill="none" stroke="#ecf6ee" stroke-width="3.0" stroke-linecap="round" stroke-linejoin="round" opacity="0.45"/><polyline points="989.6,279.5 989.6,295.7" fill="none" stroke="#d4ebd8" stroke-width="2.0999999999999996" stroke-linecap="round" stroke-linejoin="round" opacity="0.35"/><defs><radialGradient id="hl16"><stop offset="0" stop-color="#ffffff" stop-opacity="0.55"/><stop offset="1" stop-color="#ffffff" stop-opacity="0"/></radialGradient></defs><ellipse cx="986.9" cy="266.5" rx="11.0" ry="5.9" fill="url(#hl16)"/></g><defs><radialGradient id="cs17"><stop offset="0" stop-color="#0f172a" stop-opacity="0.2"/><stop offset="0.6" stop-color="#0f172a" stop-opacity="0.070"/><stop offset="1" stop-color="#0f172a" stop-opacity="0"/></radialGradient></defs><ellipse cx="1015.2" cy="300.0" rx="20.1" ry="11.6" fill="url(#cs17)"/><defs><linearGradient id="ct17" x1="0" y1="0" x2="1" y2="1"><stop offset="0" stop-color="#d0ece8"/><stop offset="1" stop-color="#a6dbd4"/></linearGradient><linearGradient id="cl17" x1="0" y1="0" x2="0" y2="1"><stop offset="0" stop-color="#8bd0c7"/><stop offset="1" stop-color="#6aa49c"/></linearGradient><linearGradient id="cr17" x1="0" y1="0" x2="0" y2="1"><stop offset="0" stop-color="#74b4ac"/><stop offset="1" stop-color="#54837d"/></linearGradient></defs><defs><clipPath id="cp17"><path d="M1018.4,275.1 L1026.3,279.6 Q1031.5,282.6 1031.5,288.6 L1031.5,292.8 Q1031.5,298.8 1026.3,301.8 L1018.4,306.3 Q1013.2,309.3 1008.0,306.3 L1000.2,301.8 Q995.0,298.8 995.0,292.8 L995.0,288.6 Q995.0,282.6 1000.2,279.6 L1008.0,275.1 Q1013.2,272.1 1018.4,275.1 Z"/></clipPath></defs><g clip-path="url(#cp17)"><polygon points="995.0,298.8 1013.2,309.3 1013.2,293.2 995.0,282.6" fill="url(#cl17)" stroke="none" stroke-width="0" stroke-linejoin="round"/><polygon points="1031.5,298.8 1013.2,309.3 1013.2,293.2 1031.5,282.6" fill="url(#cr17)" stroke="none" stroke-width="0" stroke-linejoin="round"/><polygon points="1013.2,272.1 1031.5,282.6 1013.2,293.2 995.0,282.6" fill="url(#ct17)" stroke="none" stroke-width="0" stroke-linejoin="round"/><polyline points="995.0,282.6 1013.2,272.1 1031.5,282.6" fill="none" stroke="#edf8f6" stroke-width="4.199999999999999" stroke-linecap="round" stroke-linejoin="round" opacity="0.75"/><polyline points="1031.5,282.6 1013.2,293.2 995.0,282.6" fill="none" stroke="#e6f5f3" stroke-width="3.0" stroke-linecap="round" stroke-linejoin="round" opacity="0.45"/><polyline points="1013.2,293.2 1013.2,309.3" fill="none" stroke="#c8e8e4" stroke-width="2.0999999999999996" stroke-linecap="round" stroke-linejoin="round" opacity="0.35"/><defs><radialGradient id="hl17"><stop offset="0" stop-color="#ffffff" stop-opacity="0.55"/><stop offset="1" stop-color="#ffffff" stop-opacity="0"/></radialGradient></defs><ellipse cx="1010.5" cy="280.1" rx="11.0" ry="5.9" fill="url(#hl17)"/></g><defs><radialGradient id="cs18"><stop offset="0" stop-color="#0f172a" stop-opacity="0.2"/><stop offset="0.6" stop-color="#0f172a" stop-opacity="0.070"/><stop offset="1" stop-color="#0f172a" stop-opacity="0"/></radialGradient></defs><ellipse cx="1038.8" cy="313.6" rx="20.1" ry="11.6" fill="url(#cs18)"/><defs><linearGradient id="ct18" x1="0" y1="0" x2="1" y2="1"><stop offset="0" stop-color="#dbeede"/><stop offset="1" stop-color="#badfc0"/></linearGradient><linearGradient id="cl18" x1="0" y1="0" x2="0" y2="1"><stop offset="0" stop-color="#a5d6ad"/><stop offset="1" stop-color="#7fa986"/></linearGradient><linearGradient id="cr18" x1="0" y1="0" x2="0" y2="1"><stop offset="0" stop-color="#8cba94"/><stop offset="1" stop-color="#66876c"/></linearGradient></defs><defs><clipPath id="cp18"><path d="M1042.0,288.7 L1049.9,293.3 Q1055.1,296.3 1055.1,302.3 L1055.1,306.4 Q1055.1,312.4 1049.9,315.4 L1042.0,319.9 Q1036.8,322.9 1031.7,319.9 L1023.8,315.4 Q1018.6,312.4 1018.6,306.4 L1018.6,302.3 Q1018.6,296.3 1023.8,293.3 L1031.7,288.7 Q1036.8,285.7 1042.0,288.7 Z"/></clipPath></defs><g clip-path="url(#cp18)"><polygon points="1018.6,312.4 1036.8,322.9 1036.8,306.8 1018.6,296.3" fill="url(#cl18)" stroke="none" stroke-width="0" stroke-linejoin="round"/><polygon points="1055.1,312.4 1036.8,322.9 1036.8,306.8 1055.1,296.3" fill="url(#cr18)" stroke="none" stroke-width="0" stroke-linejoin="round"/><polygon points="1036.8,285.7 1055.1,296.3 1036.8,306.8 1018.6,296.3" fill="url(#ct18)" stroke="none" stroke-width="0" stroke-linejoin="round"/><polyline points="1018.6,296.3 1036.8,285.7 1055.1,296.3" fill="none" stroke="#f1f8f2" stroke-width="4.199999999999999" stroke-linecap="round" stroke-linejoin="round" opacity="0.75"/><polyline points="1055.1,296.3 1036.8,306.8 1018.6,296.3" fill="none" stroke="#ecf6ee" stroke-width="3.0" stroke-linecap="round" stroke-linejoin="round" opacity="0.45"/><polyline points="1036.8,306.8 1036.8,322.9" fill="none" stroke="#d4ebd8" stroke-width="2.0999999999999996" stroke-linecap="round" stroke-linejoin="round" opacity="0.35"/><defs><radialGradient id="hl18"><stop offset="0" stop-color="#ffffff" stop-opacity="0.55"/><stop offset="1" stop-color="#ffffff" stop-opacity="0"/></radialGradient></defs><ellipse cx="1034.1" cy="293.8" rx="11.0" ry="5.9" fill="url(#hl18)"/></g><defs><radialGradient id="cs19"><stop offset="0" stop-color="#0f172a" stop-opacity="0.2"/><stop offset="0.6" stop-color="#0f172a" stop-opacity="0.070"/><stop offset="1" stop-color="#0f172a" stop-opacity="0"/></radialGradient></defs><ellipse cx="1062.5" cy="327.3" rx="20.1" ry="11.6" fill="url(#cs19)"/><defs><linearGradient id="ct19" x1="0" y1="0" x2="1" y2="1"><stop offset="0" stop-color="#d0ece8"/><stop offset="1" stop-color="#a6dbd4"/></linearGradient><linearGradient id="cl19" x1="0" y1="0" x2="0" y2="1"><stop offset="0" stop-color="#8bd0c7"/><stop offset="1" stop-color="#6aa49c"/></linearGradient><linearGradient id="cr19" x1="0" y1="0" x2="0" y2="1"><stop offset="0" stop-color="#74b4ac"/><stop offset="1" stop-color="#54837d"/></linearGradient></defs><defs><clipPath id="cp19"><path d="M1065.7,302.4 L1073.5,306.9 Q1078.7,309.9 1078.7,315.9 L1078.7,320.0 Q1078.7,326.0 1073.5,329.0 L1065.7,333.6 Q1060.5,336.6 1055.3,333.6 L1047.4,329.0 Q1042.2,326.0 1042.2,320.0 L1042.2,315.9 Q1042.2,309.9 1047.4,306.9 L1055.3,302.4 Q1060.5,299.4 1065.7,302.4 Z"/></clipPath></defs><g clip-path="url(#cp19)"><polygon points="1042.2,326.0 1060.5,336.6 1060.5,320.5 1042.2,309.9" fill="url(#cl19)" stroke="none" stroke-width="0" stroke-linejoin="round"/><polygon points="1078.7,326.0 1060.5,336.6 1060.5,320.5 1078.7,309.9" fill="url(#cr19)" stroke="none" stroke-width="0" stroke-linejoin="round"/><polygon points="1060.5,299.4 1078.7,309.9 1060.5,320.5 1042.2,309.9" fill="url(#ct19)" stroke="none" stroke-width="0" stroke-linejoin="round"/><polyline points="1042.2,309.9 1060.5,299.4 1078.7,309.9" fill="none" stroke="#edf8f6" stroke-width="4.199999999999999" stroke-linecap="round" stroke-linejoin="round" opacity="0.75"/><polyline points="1078.7,309.9 1060.5,320.5 1042.2,309.9" fill="none" stroke="#e6f5f3" stroke-width="3.0" stroke-linecap="round" stroke-linejoin="round" opacity="0.45"/><polyline points="1060.5,320.5 1060.5,336.6" fill="none" stroke="#c8e8e4" stroke-width="2.0999999999999996" stroke-linecap="round" stroke-linejoin="round" opacity="0.35"/><defs><radialGradient id="hl19"><stop offset="0" stop-color="#ffffff" stop-opacity="0.55"/><stop offset="1" stop-color="#ffffff" stop-opacity="0"/></radialGradient></defs><ellipse cx="1057.7" cy="307.4" rx="11.0" ry="5.9" fill="url(#hl19)"/></g><text x="1010.0" y="422.0" font-family="Lato, 'Noto Sans', 'Liberation Sans', Helvetica, Arial, sans-serif" font-size="34" font-weight="bold" text-anchor="middle" fill="#1f2937">Transformation System</text><text x="1010.0" y="456.0" font-family="Lato, 'Noto Sans', 'Liberation Sans', Helvetica, Arial, sans-serif" font-size="28" font-weight="normal" text-anchor="middle" fill="#6b7280">hands parcels to a backend</text><defs><radialGradient id="xbk-sh"><stop offset="0" stop-color="#0f172a" stop-opacity="0.2"/><stop offset="0.6" stop-color="#0f172a" stop-opacity="0.070"/><stop offset="1" stop-color="#0f172a" stop-opacity="0"/></radialGradient></defs><ellipse cx="1440.0" cy="358.0" rx="85.9" ry="63.2" fill="url(#xbk-sh)"/><defs><linearGradient id="xbk" x1="0" y1="0" x2="1" y2="1"><stop offset="0" stop-color="#f2f5f8"/><stop offset="1" stop-color="#e6ebf2"/></linearGradient><linearGradient id="xbk-l" x1="0" y1="0" x2="0" y2="1"><stop offset="0" stop-color="#e0e6ee"/><stop offset="1" stop-color="#aeb3ba"/></linearGradient><linearGradient id="xbk-r" x1="0" y1="0" x2="0" y2="1"><stop offset="0" stop-color="#c0c5cd"/><stop offset="1" stop-color="#8a8e94"/></linearGradient></defs><defs><clipPath id="cp20"><path d="M1416.8,290.2 L1508.9,343.4 Q1521.1,350.4 1521.1,355.8 L1521.1,355.8 Q1521.1,361.2 1508.9,368.2 L1487.5,380.6 Q1475.3,387.6 1463.2,380.6 L1371.1,327.4 Q1358.9,320.4 1358.9,315.0 L1358.9,315.0 Q1358.9,309.6 1371.1,302.6 L1392.5,290.2 Q1404.7,283.2 1416.8,290.2 Z"/></clipPath></defs><g clip-path="url(#cp20)"><polygon points="1358.9,320.4 1475.3,387.6 1475.3,376.8 1358.9,309.6" fill="url(#xbk-l)" stroke="none" stroke-width="0" stroke-linejoin="round"/><polygon points="1521.1,361.2 1475.3,387.6 1475.3,376.8 1521.1,350.4" fill="url(#xbk-r)" stroke="none" stroke-width="0" stroke-linejoin="round"/><polygon points="1404.7,283.2 1521.1,350.4 1475.3,376.8 1358.9,309.6" fill="url(#xbk)" stroke="none" stroke-width="0" stroke-linejoin="round"/><polyline points="1358.9,309.6 1404.7,283.2 1521.1,350.4" fill="none" stroke="#fafbfc" stroke-width="7.0" stroke-linecap="round" stroke-linejoin="round" opacity="0.65"/><polyline points="1521.1,350.4 1475.3,376.8 1358.9,309.6" fill="none" stroke="#f9fafc" stroke-width="4.8999999999999995" stroke-linecap="round" stroke-linejoin="round" opacity="0.45"/><polyline points="1475.3,376.8 1475.3,387.6" fill="none" stroke="#f1f3f7" stroke-width="3.5" stroke-linecap="round" stroke-linejoin="round" opacity="0.35"/></g><defs><radialGradient id="cs21"><stop offset="0" stop-color="#0f172a" stop-opacity="0.2"/><stop offset="0.6" stop-color="#0f172a" stop-opacity="0.070"/><stop offset="1" stop-color="#0f172a" stop-opacity="0"/></radialGradient></defs><ellipse cx="1408.7" cy="311.4" rx="21.7" ry="12.5" fill="url(#cs21)"/><defs><linearGradient id="ct21" x1="0" y1="0" x2="1" y2="1"><stop offset="0" stop-color="#d0ece8"/><stop offset="1" stop-color="#a6dbd4"/></linearGradient><linearGradient id="cl21" x1="0" y1="0" x2="0" y2="1"><stop offset="0" stop-color="#8bd0c7"/><stop offset="1" stop-color="#6aa49c"/></linearGradient><linearGradient id="cr21" x1="0" y1="0" x2="0" y2="1"><stop offset="0" stop-color="#74b4ac"/><stop offset="1" stop-color="#54837d"/></linearGradient></defs><defs><clipPath id="cp21"><path d="M1411.9,286.2 L1421.3,291.6 Q1426.5,294.6 1426.5,300.6 L1426.5,304.2 Q1426.5,310.2 1421.3,313.2 L1411.9,318.6 Q1406.7,321.6 1401.5,318.6 L1392.2,313.2 Q1387.0,310.2 1387.0,304.2 L1387.0,300.6 Q1387.0,294.6 1392.2,291.6 L1401.5,286.2 Q1406.7,283.2 1411.9,286.2 Z"/></clipPath></defs><g clip-path="url(#cp21)"><polygon points="1387.0,310.2 1406.7,321.6 1406.7,306.0 1387.0,294.6" fill="url(#cl21)" stroke="none" stroke-width="0" stroke-linejoin="round"/><polygon points="1426.5,310.2 1406.7,321.6 1406.7,306.0 1426.5,294.6" fill="url(#cr21)" stroke="none" stroke-width="0" stroke-linejoin="round"/><polygon points="1406.7,283.2 1426.5,294.6 1406.7,306.0 1387.0,294.6" fill="url(#ct21)" stroke="none" stroke-width="0" stroke-linejoin="round"/><polyline points="1387.0,294.6 1406.7,283.2 1426.5,294.6" fill="none" stroke="#edf8f6" stroke-width="4.199999999999999" stroke-linecap="round" stroke-linejoin="round" opacity="0.75"/><polyline points="1426.5,294.6 1406.7,306.0 1387.0,294.6" fill="none" stroke="#e6f5f3" stroke-width="3.0" stroke-linecap="round" stroke-linejoin="round" opacity="0.45"/><polyline points="1406.7,306.0 1406.7,321.6" fill="none" stroke="#c8e8e4" stroke-width="2.0999999999999996" stroke-linecap="round" stroke-linejoin="round" opacity="0.35"/><defs><radialGradient id="hl21"><stop offset="0" stop-color="#ffffff" stop-opacity="0.55"/><stop offset="1" stop-color="#ffffff" stop-opacity="0"/></radialGradient></defs><ellipse cx="1403.8" cy="291.9" rx="11.8" ry="6.4" fill="url(#hl21)"/></g><defs><radialGradient id="cs22"><stop offset="0" stop-color="#0f172a" stop-opacity="0.2"/><stop offset="0.6" stop-color="#0f172a" stop-opacity="0.070"/><stop offset="1" stop-color="#0f172a" stop-opacity="0"/></radialGradient></defs><ellipse cx="1437.8" cy="328.2" rx="21.7" ry="12.5" fill="url(#cs22)"/><defs><linearGradient id="ct22" x1="0" y1="0" x2="1" y2="1"><stop offset="0" stop-color="#d0ece8"/><stop offset="1" stop-color="#a6dbd4"/></linearGradient><linearGradient id="cl22" x1="0" y1="0" x2="0" y2="1"><stop offset="0" stop-color="#8bd0c7"/><stop offset="1" stop-color="#6aa49c"/></linearGradient><linearGradient id="cr22" x1="0" y1="0" x2="0" y2="1"><stop offset="0" stop-color="#74b4ac"/><stop offset="1" stop-color="#54837d"/></linearGradient></defs><defs><clipPath id="cp22"><path d="M1441.0,303.0 L1450.4,308.4 Q1455.6,311.4 1455.6,317.4 L1455.6,321.0 Q1455.6,327.0 1450.4,330.0 L1441.0,335.4 Q1435.8,338.4 1430.6,335.4 L1421.3,330.0 Q1416.1,327.0 1416.1,321.0 L1416.1,317.4 Q1416.1,311.4 1421.3,308.4 L1430.6,303.0 Q1435.8,300.0 1441.0,303.0 Z"/></clipPath></defs><g clip-path="url(#cp22)"><polygon points="1416.1,327.0 1435.8,338.4 1435.8,322.8 1416.1,311.4" fill="url(#cl22)" stroke="none" stroke-width="0" stroke-linejoin="round"/><polygon points="1455.6,327.0 1435.8,338.4 1435.8,322.8 1455.6,311.4" fill="url(#cr22)" stroke="none" stroke-width="0" stroke-linejoin="round"/><polygon points="1435.8,300.0 1455.6,311.4 1435.8,322.8 1416.1,311.4" fill="url(#ct22)" stroke="none" stroke-width="0" stroke-linejoin="round"/><polyline points="1416.1,311.4 1435.8,300.0 1455.6,311.4" fill="none" stroke="#edf8f6" stroke-width="4.199999999999999" stroke-linecap="round" stroke-linejoin="round" opacity="0.75"/><polyline points="1455.6,311.4 1435.8,322.8 1416.1,311.4" fill="none" stroke="#e6f5f3" stroke-width="3.0" stroke-linecap="round" stroke-linejoin="round" opacity="0.45"/><polyline points="1435.8,322.8 1435.8,338.4" fill="none" stroke="#c8e8e4" stroke-width="2.0999999999999996" stroke-linecap="round" stroke-linejoin="round" opacity="0.35"/><defs><radialGradient id="hl22"><stop offset="0" stop-color="#ffffff" stop-opacity="0.55"/><stop offset="1" stop-color="#ffffff" stop-opacity="0"/></radialGradient></defs><ellipse cx="1432.9" cy="308.7" rx="11.8" ry="6.4" fill="url(#hl22)"/></g><defs><radialGradient id="cs23"><stop offset="0" stop-color="#0f172a" stop-opacity="0.2"/><stop offset="0.6" stop-color="#0f172a" stop-opacity="0.070"/><stop offset="1" stop-color="#0f172a" stop-opacity="0"/></radialGradient></defs><ellipse cx="1466.9" cy="345.0" rx="21.7" ry="12.5" fill="url(#cs23)"/><defs><linearGradient id="ct23" x1="0" y1="0" x2="1" y2="1"><stop offset="0" stop-color="#d0ece8"/><stop offset="1" stop-color="#a6dbd4"/></linearGradient><linearGradient id="cl23" x1="0" y1="0" x2="0" y2="1"><stop offset="0" stop-color="#8bd0c7"/><stop offset="1" stop-color="#6aa49c"/></linearGradient><linearGradient id="cr23" x1="0" y1="0" x2="0" y2="1"><stop offset="0" stop-color="#74b4ac"/><stop offset="1" stop-color="#54837d"/></linearGradient></defs><defs><clipPath id="cp23"><path d="M1470.1,319.8 L1479.5,325.2 Q1484.7,328.2 1484.7,334.2 L1484.7,337.8 Q1484.7,343.8 1479.5,346.8 L1470.1,352.2 Q1464.9,355.2 1459.7,352.2 L1450.4,346.8 Q1445.2,343.8 1445.2,337.8 L1445.2,334.2 Q1445.2,328.2 1450.4,325.2 L1459.7,319.8 Q1464.9,316.8 1470.1,319.8 Z"/></clipPath></defs><g clip-path="url(#cp23)"><polygon points="1445.2,343.8 1464.9,355.2 1464.9,339.6 1445.2,328.2" fill="url(#cl23)" stroke="none" stroke-width="0" stroke-linejoin="round"/><polygon points="1484.7,343.8 1464.9,355.2 1464.9,339.6 1484.7,328.2" fill="url(#cr23)" stroke="none" stroke-width="0" stroke-linejoin="round"/><polygon points="1464.9,316.8 1484.7,328.2 1464.9,339.6 1445.2,328.2" fill="url(#ct23)" stroke="none" stroke-width="0" stroke-linejoin="round"/><polyline points="1445.2,328.2 1464.9,316.8 1484.7,328.2" fill="none" stroke="#edf8f6" stroke-width="4.199999999999999" stroke-linecap="round" stroke-linejoin="round" opacity="0.75"/><polyline points="1484.7,328.2 1464.9,339.6 1445.2,328.2" fill="none" stroke="#e6f5f3" stroke-width="3.0" stroke-linecap="round" stroke-linejoin="round" opacity="0.45"/><polyline points="1464.9,339.6 1464.9,355.2" fill="none" stroke="#c8e8e4" stroke-width="2.0999999999999996" stroke-linecap="round" stroke-linejoin="round" opacity="0.35"/><defs><radialGradient id="hl23"><stop offset="0" stop-color="#ffffff" stop-opacity="0.55"/><stop offset="1" stop-color="#ffffff" stop-opacity="0"/></radialGradient></defs><ellipse cx="1462.0" cy="325.5" rx="11.8" ry="6.4" fill="url(#hl23)"/></g><text x="1440.0" y="442.0" font-family="Lato, 'Noto Sans', 'Liberation Sans', Helvetica, Arial, sans-serif" font-size="34" font-weight="bold" text-anchor="middle" fill="#1f2937">DiracX</text><text x="1440.0" y="476.0" font-family="Lato, 'Noto Sans', 'Liberation Sans', Helvetica, Arial, sans-serif" font-size="28" font-weight="normal" text-anchor="middle" fill="#6b7280">backend</text><path d="M880.0,296.0 Q710.0,296.0 554.0,296.0" fill="none" stroke="#6b7280" stroke-width="4.4" stroke-linecap="round"/><polygon points="540.0,296.0 560.0,287.0 560.0,305.0" fill="#6b7280"/><text x="716.0" y="246.0" font-family="Lato, 'Noto Sans', 'Liberation Sans', Helvetica, Arial, sans-serif" font-size="44" font-weight="bold" text-anchor="middle" fill="#22456f">90 %</text><path d="M1140.0,296.0 Q1240.0,296.0 1326.0,296.0" fill="none" stroke="#6b7280" stroke-width="4.4" stroke-linecap="round"/><polygon points="1340.0,296.0 1320.0,305.0 1320.0,287.0" fill="#6b7280"/><text x="1240.0" y="246.0" font-family="Lato, 'Noto Sans', 'Liberation Sans', Helvetica, Arial, sans-serif" font-size="44" font-weight="bold" text-anchor="middle" fill="#22456f">10 %</text><text x="1160.0" y="170.0" font-family="Lato, 'Noto Sans', 'Liberation Sans', Helvetica, Arial, sans-serif" font-size="24" font-weight="normal" font-style="italic" text-anchor="middle" fill="#6b7280">for example: the split can be anything, per installation, VO and type</text><defs><radialGradient id="dbo0-cs"><stop offset="0" stop-color="#0f172a" stop-opacity="0.18"/><stop offset="0.6" stop-color="#0f172a" stop-opacity="0.063"/><stop offset="1" stop-color="#0f172a" stop-opacity="0"/></radialGradient></defs><ellipse cx="264.0" cy="684.1" rx="34.2" ry="14.0" fill="url(#dbo0-cs)"/><defs><linearGradient id="dbo0" x1="0" y1="0" x2="0" y2="1"><stop offset="0" stop-color="#c2cad5"/><stop offset="1" stop-color="#959ba5"/></linearGradient></defs><path d="M226.0,616.0 A38.0,6.1 0 0 0 302.0,616.0 L302.0,670.0 A38.0,6.1 0 0 1 226.0,670.0 Z" fill="url(#dbo0)"/><ellipse cx="264.0" cy="616.0" rx="38.0" ry="6.1" fill="#dadfe5"/><ellipse cx="264.0" cy="616.0" rx="38.0" ry="6.1" fill="none" stroke="#e9ebf0" stroke-width="2" opacity="0.6"/><defs><radialGradient id="dbo1-cs"><stop offset="0" stop-color="#0f172a" stop-opacity="0.18"/><stop offset="0.6" stop-color="#0f172a" stop-opacity="0.063"/><stop offset="1" stop-color="#0f172a" stop-opacity="0"/></radialGradient></defs><ellipse cx="360.0" cy="684.1" rx="34.2" ry="14.0" fill="url(#dbo1-cs)"/><defs><linearGradient id="dbo1" x1="0" y1="0" x2="0" y2="1"><stop offset="0" stop-color="#c2cad5"/><stop offset="1" stop-color="#959ba5"/></linearGradient></defs><path d="M322.0,616.0 A38.0,6.1 0 0 0 398.0,616.0 L398.0,670.0 A38.0,6.1 0 0 1 322.0,670.0 Z" fill="url(#dbo1)"/><ellipse cx="360.0" cy="616.0" rx="38.0" ry="6.1" fill="#dadfe5"/><ellipse cx="360.0" cy="616.0" rx="38.0" ry="6.1" fill="none" stroke="#e9ebf0" stroke-width="2" opacity="0.6"/><defs><radialGradient id="dbo2-cs"><stop offset="0" stop-color="#0f172a" stop-opacity="0.18"/><stop offset="0.6" stop-color="#0f172a" stop-opacity="0.063"/><stop offset="1" stop-color="#0f172a" stop-opacity="0"/></radialGradient></defs><ellipse cx="456.0" cy="684.1" rx="34.2" ry="14.0" fill="url(#dbo2-cs)"/><defs><linearGradient id="dbo2" x1="0" y1="0" x2="0" y2="1"><stop offset="0" stop-color="#c2cad5"/><stop offset="1" stop-color="#959ba5"/></linearGradient></defs><path d="M418.0,616.0 A38.0,6.1 0 0 0 494.0,616.0 L494.0,670.0 A38.0,6.1 0 0 1 418.0,670.0 Z" fill="url(#dbo2)"/><ellipse cx="456.0" cy="616.0" rx="38.0" ry="6.1" fill="#dadfe5"/><ellipse cx="456.0" cy="616.0" rx="38.0" ry="6.1" fill="none" stroke="#e9ebf0" stroke-width="2" opacity="0.6"/><text x="360.0" y="744.0" font-family="Lato, 'Noto Sans', 'Liberation Sans', Helvetica, Arial, sans-serif" font-size="28" font-weight="normal" text-anchor="middle" fill="#6b7280">DIRAC's databases, as they are</text><defs><radialGradient id="dbn0-cs"><stop offset="0" stop-color="#0f172a" stop-opacity="0.18"/><stop offset="0.6" stop-color="#0f172a" stop-opacity="0.063"/><stop offset="1" stop-color="#0f172a" stop-opacity="0"/></radialGradient></defs><ellipse cx="1112.0" cy="684.1" rx="34.2" ry="14.0" fill="url(#dbn0-cs)"/><defs><linearGradient id="dbn0" x1="0" y1="0" x2="0" y2="1"><stop offset="0" stop-color="#a4d5ce"/><stop offset="1" stop-color="#7ca59e"/></linearGradient></defs><path d="M1074.0,616.0 A38.0,6.1 0 0 0 1150.0,616.0 L1150.0,670.0 A38.0,6.1 0 0 1 1074.0,670.0 Z" fill="url(#dbn0)"/><ellipse cx="1112.0" cy="616.0" rx="38.0" ry="6.1" fill="#c7e5e1"/><ellipse cx="1112.0" cy="616.0" rx="38.0" ry="6.1" fill="none" stroke="#ddf0ed" stroke-width="2" opacity="0.6"/><defs><radialGradient id="dbn1-cs"><stop offset="0" stop-color="#0f172a" stop-opacity="0.18"/><stop offset="0.6" stop-color="#0f172a" stop-opacity="0.063"/><stop offset="1" stop-color="#0f172a" stop-opacity="0"/></radialGradient></defs><ellipse cx="1208.0" cy="684.1" rx="34.2" ry="14.0" fill="url(#dbn1-cs)"/><defs><linearGradient id="dbn1" x1="0" y1="0" x2="0" y2="1"><stop offset="0" stop-color="#a4d5ce"/><stop offset="1" stop-color="#7ca59e"/></linearGradient></defs><path d="M1170.0,616.0 A38.0,6.1 0 0 0 1246.0,616.0 L1246.0,670.0 A38.0,6.1 0 0 1 1170.0,670.0 Z" fill="url(#dbn1)"/><ellipse cx="1208.0" cy="616.0" rx="38.0" ry="6.1" fill="#c7e5e1"/><ellipse cx="1208.0" cy="616.0" rx="38.0" ry="6.1" fill="none" stroke="#ddf0ed" stroke-width="2" opacity="0.6"/><text x="1160.0" y="744.0" font-family="Lato, 'Noto Sans', 'Liberation Sans', Helvetica, Arial, sans-serif" font-size="28" font-weight="normal" text-anchor="middle" fill="#6b7280">new tables, shared with nothing</text><path d="M360.0,524.0 Q360.0,570.0 360.0,602.0" fill="none" stroke="#6b7280" stroke-width="3.2" stroke-linecap="round"/><polygon points="360.0,616.0 351.0,596.0 369.0,596.0" fill="#6b7280"/><path d="M1010.0,524.0 Q1055.0,570.0 1090.2,606.0" fill="none" stroke="#6b7280" stroke-width="3.2" stroke-linecap="round"/><polygon points="1100.0,616.0 1079.6,608.0 1092.4,595.4" fill="#6b7280"/></svg>