<svg xmlns="http://www.w3.org/2000/svg" viewBox="0 0 1500 720" width="1500" height="720"><defs><marker id="arr" markerUnits="userSpaceOnUse" viewBox="0 0 10 10" refX="9" refY="5" markerWidth="22" markerHeight="20" orient="auto-start-reverse"><path d="M0,0 L10,5 L0,10 Z" fill="#6b7280"/></marker></defs><defs><radialGradient id="client0-cs"><stop offset="0" stop-color="#0f172a" stop-opacity="0.16"/><stop offset="0.6" stop-color="#0f172a" stop-opacity="0.056"/><stop offset="1" stop-color="#0f172a" stop-opacity="0"/></radialGradient></defs><ellipse cx="523.0" cy="128.0" rx="134.0" ry="11.0" fill="url(#client0-cs)"/><defs><linearGradient id="client0" x1="0" y1="0" x2="0.25" y2="1"><stop offset="0" stop-color="#d6e1f1"/><stop offset="1" stop-color="#95a8c3"/></linearGradient></defs><rect x="389.0" y="68.0" width="268.0" height="56.0" rx="18.0" fill="url(#client0)"/><path d="M401.6,70.6 L644.4,70.6" stroke="#f3f6fb" stroke-width="2.8" stroke-linecap="round" opacity="0.75" fill="none"/><text x="523.0" y="104.0" font-family="Lato, 'Noto Sans', 'Liberation Sans', Helvetica, Arial, sans-serif" font-size="34" font-weight="normal" text-anchor="middle" fill="#25405f">user client</text><defs><radialGradient id="client1-cs"><stop offset="0" stop-color="#0f172a" stop-opacity="0.16"/><stop offset="0.6" stop-color="#0f172a" stop-opacity="0.056"/><stop offset="1" stop-color="#0f172a" stop-opacity="0"/></radialGradient></defs><ellipse cx="750.0" cy="128.0" rx="75.0" ry="11.0" fill="url(#client1-cs)"/><defs><linearGradient id="client1" x1="0" y1="0" x2="0.25" y2="1"><stop offset="0" stop-color="#d6e1f1"/><stop offset="1" stop-color="#95a8c3"/></linearGradient></defs><rect x="675.0" y="68.0" width="150.0" height="56.0" rx="18.0" fill="url(#client1)"/><path d="M687.6,70.6 L812.4,70.6" stroke="#f3f6fb" stroke-width="2.8" stroke-linecap="round" opacity="0.75" fill="none"/><text x="750.0" y="104.0" font-family="Lato, 'Noto Sans', 'Liberation Sans', Helvetica, Arial, sans-serif" font-size="34" font-weight="normal" text-anchor="middle" fill="#25405f">pilot</text><defs><radialGradient id="client2-cs"><stop offset="0" stop-color="#0f172a" stop-opacity="0.16"/><stop offset="0.6" stop-color="#0f172a" stop-opacity="0.056"/><stop offset="1" stop-color="#0f172a" stop-opacity="0"/></radialGradient></defs><ellipse cx="977.0" cy="128.0" rx="134.0" ry="11.0" fill="url(#client2-cs)"/><defs><linearGradient id="client2" x1="0" y1="0" x2="0.25" y2="1"><stop offset="0" stop-color="#d6e1f1"/><stop offset="1" stop-color="#95a8c3"/></linearGradient></defs><rect x="843.0" y="68.0" width="268.0" height="56.0" rx="18.0" fill="url(#client2)"/><path d="M855.6,70.6 L1098.4,70.6" stroke="#f3f6fb" stroke-width="2.8" stroke-linecap="round" opacity="0.75" fill="none"/><text x="977.0" y="104.0" font-family="Lato, 'Noto Sans', 'Liberation Sans', Helvetica, Arial, sans-serif" font-size="34" font-weight="normal" text-anchor="middle" fill="#25405f">web interface</text><text x="750.0" y="44.0" font-family="Lato, 'Noto Sans', 'Liberation Sans', Helvetica, Arial, sans-serif" font-size="44" font-weight="bold" text-anchor="middle" fill="#1f2937">clients</text><rect x="40" y="196" width="1030" height="330" rx="26" fill="#f3f6fa" stroke="#d8e0ea" stroke-width="3"/><text x="80.0" y="236.0" font-family="Lato, 'Noto Sans', 'Liberation Sans', Helvetica, Arial, sans-serif" font-size="34" font-weight="bold" text-anchor="start" fill="#6b7280">DiracX</text><defs><radialGradient id="bk1-sh"><stop offset="0" stop-color="#0f172a" stop-opacity="0.2"/><stop offset="0.6" stop-color="#0f172a" stop-opacity="0.070"/><stop offset="1" stop-color="#0f172a" stop-opacity="0"/></radialGradient></defs><ellipse cx="210.0" cy="358.0" rx="85.9" ry="63.2" fill="url(#bk1-sh)"/><defs><linearGradient id="bk1" x1="0" y1="0" x2="1" y2="1"><stop offset="0" stop-color="#f2f5f8"/><stop offset="1" stop-color="#e6ebf2"/></linearGradient><linearGradient id="bk1-l" x1="0" y1="0" x2="0" y2="1"><stop offset="0" stop-color="#e0e6ee"/><stop offset="1" stop-color="#aeb3ba"/></linearGradient><linearGradient id="bk1-r" x1="0" y1="0" x2="0" y2="1"><stop offset="0" stop-color="#c0c5cd"/><stop offset="1" stop-color="#8a8e94"/></linearGradient></defs><defs><clipPath id="cp0"><path d="M186.8,290.2 L278.9,343.4 Q291.1,350.4 291.1,355.8 L291.1,355.8 Q291.1,361.2 278.9,368.2 L257.5,380.6 Q245.3,387.6 233.2,380.6 L141.1,327.4 Q128.9,320.4 128.9,315.0 L128.9,315.0 Q128.9,309.6 141.1,302.6 L162.5,290.2 Q174.7,283.2 186.8,290.2 Z"/></clipPath></defs><g clip-path="url(#cp0)"><polygon points="128.9,320.4 245.3,387.6 245.3,376.8 128.9,309.6" fill="url(#bk1-l)" stroke="none" stroke-width="0" stroke-linejoin="round"/><polygon points="291.1,361.2 245.3,387.6 245.3,376.8 291.1,350.4" fill="url(#bk1-r)" stroke="none" stroke-width="0" stroke-linejoin="round"/><polygon points="174.7,283.2 291.1,350.4 245.3,376.8 128.9,309.6" fill="url(#bk1)" stroke="none" stroke-width="0" stroke-linejoin="round"/><polyline points="128.9,309.6 174.7,283.2 291.1,350.4" fill="none" stroke="#fafbfc" stroke-width="7.0" stroke-linecap="round" stroke-linejoin="round" opacity="0.65"/><polyline points="291.1,350.4 245.3,376.8 128.9,309.6" fill="none" stroke="#f9fafc" stroke-width="4.8999999999999995" stroke-linecap="round" stroke-linejoin="round" opacity="0.45"/><polyline points="245.3,376.8 245.3,387.6" fill="none" stroke="#f1f3f7" stroke-width="3.5" stroke-linecap="round" stroke-linejoin="round" opacity="0.35"/></g><defs><radialGradient id="cs1"><stop offset="0" stop-color="#0f172a" stop-opacity="0.2"/><stop offset="0.6" stop-color="#0f172a" stop-opacity="0.070"/><stop offset="1" stop-color="#0f172a" stop-opacity="0"/></radialGradient></defs><ellipse cx="178.7" cy="311.4" rx="21.7" ry="12.5" fill="url(#cs1)"/><defs><linearGradient id="ct1" x1="0" y1="0" x2="1" y2="1"><stop offset="0" stop-color="#d0ece8"/><stop offset="1" stop-color="#a6dbd4"/></linearGradient><linearGradient id="cl1" x1="0" y1="0" x2="0" y2="1"><stop offset="0" stop-color="#8bd0c7"/><stop offset="1" stop-color="#6aa49c"/></linearGradient><linearGradient id="cr1" x1="0" y1="0" x2="0" y2="1"><stop offset="0" stop-color="#74b4ac"/><stop offset="1" stop-color="#54837d"/></linearGradient></defs><defs><clipPath id="cp1"><path d="M181.9,286.2 L191.3,291.6 Q196.5,294.6 196.5,300.6 L196.5,304.2 Q196.5,310.2 191.3,313.2 L181.9,318.6 Q176.7,321.6 171.5,318.6 L162.2,313.2 Q157.0,310.2 157.0,304.2 L157.0,300.6 Q157.0,294.6 162.2,291.6 L171.5,286.2 Q176.7,283.2 181.9,286.2 Z"/></clipPath></defs><g clip-path="url(#cp1)"><polygon points="157.0,310.2 176.7,321.6 176.7,306.0 157.0,294.6" fill="url(#cl1)" stroke="none" stroke-width="0" stroke-linejoin="round"/><polygon points="196.5,310.2 176.7,321.6 176.7,306.0 196.5,294.6" fill="url(#cr1)" stroke="none" stroke-width="0" stroke-linejoin="round"/><polygon points="176.7,283.2 196.5,294.6 176.7,306.0 157.0,294.6" fill="url(#ct1)" stroke="none" stroke-width="0" stroke-linejoin="round"/><polyline points="157.0,294.6 176.7,283.2 196.5,294.6" fill="none" stroke="#edf8f6" stroke-width="4.199999999999999" stroke-linecap="round" stroke-linejoin="round" opacity="0.75"/><polyline points="196.5,294.6 176.7,306.0 157.0,294.6" fill="none" stroke="#e6f5f3" stroke-width="3.0" stroke-linecap="round" stroke-linejoin="round" opacity="0.45"/><polyline points="176.7,306.0 176.7,321.6" fill="none" stroke="#c8e8e4" stroke-width="2.0999999999999996" stroke-linecap="round" stroke-linejoin="round" opacity="0.35"/><defs><radialGradient id="hl1"><stop offset="0" stop-color="#ffffff" stop-opacity="0.55"/><stop offset="1" stop-color="#ffffff" stop-opacity="0"/></radialGradient></defs><ellipse cx="173.8" cy="291.9" rx="11.8" ry="6.4" fill="url(#hl1)"/></g><defs><radialGradient id="cs2"><stop offset="0" stop-color="#0f172a" stop-opacity="0.2"/><stop offset="0.6" stop-color="#0f172a" stop-opacity="0.070"/><stop offset="1" stop-color="#0f172a" stop-opacity="0"/></radialGradient></defs><ellipse cx="207.8" cy="328.2" rx="21.7" ry="12.5" fill="url(#cs2)"/><defs><linearGradient id="ct2" x1="0" y1="0" x2="1" y2="1"><stop offset="0" stop-color="#d0ece8"/><stop offset="1" stop-color="#a6dbd4"/></linearGradient><linearGradient id="cl2" x1="0" y1="0" x2="0" y2="1"><stop offset="0" stop-color="#8bd0c7"/><stop offset="1" stop-color="#6aa49c"/></linearGradient><linearGradient id="cr2" x1="0" y1="0" x2="0" y2="1"><stop offset="0" stop-color="#74b4ac"/><stop offset="1" stop-color="#54837d"/></linearGradient></defs><defs><clipPath id="cp2"><path d="M211.0,303.0 L220.4,308.4 Q225.6,311.4 225.6,317.4 L225.6,321.0 Q225.6,327.0 220.4,330.0 L211.0,335.4 Q205.8,338.4 200.6,335.4 L191.3,330.0 Q186.1,327.0 186.1,321.0 L186.1,317.4 Q186.1,311.4 191.3,308.4 L200.6,303.0 Q205.8,300.0 211.0,303.0 Z"/></clipPath></defs><g clip-path="url(#cp2)"><polygon points="186.1,327.0 205.8,338.4 205.8,322.8 186.1,311.4" fill="url(#cl2)" stroke="none" stroke-width="0" stroke-linejoin="round"/><polygon points="225.6,327.0 205.8,338.4 205.8,322.8 225.6,311.4" fill="url(#cr2)" stroke="none" stroke-width="0" stroke-linejoin="round"/><polygon points="205.8,300.0 225.6,311.4 205.8,322.8 186.1,311.4" fill="url(#ct2)" stroke="none" stroke-width="0" stroke-linejoin="round"/><polyline points="186.1,311.4 205.8,300.0 225.6,311.4" fill="none" stroke="#edf8f6" stroke-width="4.199999999999999" stroke-linecap="round" stroke-linejoin="round" opacity="0.75"/><polyline points="225.6,311.4 205.8,322.8 186.1,311.4" fill="none" stroke="#e6f5f3" stroke-width="3.0" stroke-linecap="round" stroke-linejoin="round" opacity="0.45"/><polyline points="205.8,322.8 205.8,338.4" fill="none" stroke="#c8e8e4" stroke-width="2.0999999999999996" stroke-linecap="round" stroke-linejoin="round" opacity="0.35"/><defs><radialGradient id="hl2"><stop offset="0" stop-color="#ffffff" stop-opacity="0.55"/><stop offset="1" stop-color="#ffffff" stop-opacity="0"/></radialGradient></defs><ellipse cx="202.9" cy="308.7" rx="11.8" ry="6.4" fill="url(#hl2)"/></g><defs><radialGradient id="cs3"><stop offset="0" stop-color="#0f172a" stop-opacity="0.2"/><stop offset="0.6" stop-color="#0f172a" stop-opacity="0.070"/><stop offset="1" stop-color="#0f172a" stop-opacity="0"/></radialGradient></defs><ellipse cx="236.9" cy="345.0" rx="21.7" ry="12.5" fill="url(#cs3)"/><defs><linearGradient id="ct3" x1="0" y1="0" x2="1" y2="1"><stop offset="0" stop-color="#d0ece8"/><stop offset="1" stop-color="#a6dbd4"/></linearGradient><linearGradient id="cl3" x1="0" y1="0" x2="0" y2="1"><stop offset="0" stop-color="#8bd0c7"/><stop offset="1" stop-color="#6aa49c"/></linearGradient><linearGradient id="cr3" x1="0" y1="0" x2="0" y2="1"><stop offset="0" stop-color="#74b4ac"/><stop offset="1" stop-color="#54837d"/></linearGradient></defs><defs><clipPath id="cp3"><path d="M240.1,319.8 L249.5,325.2 Q254.7,328.2 254.7,334.2 L254.7,337.8 Q254.7,343.8 249.5,346.8 L240.1,352.2 Q234.9,355.2 229.7,352.2 L220.4,346.8 Q215.2,343.8 215.2,337.8 L215.2,334.2 Q215.2,328.2 220.4,325.2 L229.7,319.8 Q234.9,316.8 240.1,319.8 Z"/></clipPath></defs><g clip-path="url(#cp3)"><polygon points="215.2,343.8 234.9,355.2 234.9,339.6 215.2,328.2" fill="url(#cl3)" stroke="none" stroke-width="0" stroke-linejoin="round"/><polygon points="254.7,343.8 234.9,355.2 234.9,339.6 254.7,328.2" fill="url(#cr3)" stroke="none" stroke-width="0" stroke-linejoin="round"/><polygon points="234.9,316.8 254.7,328.2 234.9,339.6 215.2,328.2" fill="url(#ct3)" stroke="none" stroke-width="0" stroke-linejoin="round"/><polyline points="215.2,328.2 234.9,316.8 254.7,328.2" fill="none" stroke="#edf8f6" stroke-width="4.199999999999999" stroke-linecap="round" stroke-linejoin="round" opacity="0.75"/><polyline points="254.7,328.2 234.9,339.6 215.2,328.2" fill="none" stroke="#e6f5f3" stroke-width="3.0" stroke-linecap="round" stroke-linejoin="round" opacity="0.45"/><polyline points="234.9,339.6 234.9,355.2" fill="none" stroke="#c8e8e4" stroke-width="2.0999999999999996" stroke-linecap="round" stroke-linejoin="round" opacity="0.35"/><defs><radialGradient id="hl3"><stop offset="0" stop-color="#ffffff" stop-opacity="0.55"/><stop offset="1" stop-color="#ffffff" stop-opacity="0"/></radialGradient></defs><ellipse cx="232.0" cy="325.5" rx="11.8" ry="6.4" fill="url(#hl3)"/></g><text x="210.0" y="442.0" font-family="Lato, 'Noto Sans', 'Liberation Sans', Helvetica, Arial, sans-serif" font-size="36" font-weight="bold" text-anchor="middle" fill="#1f2937">REST endpoints</text><text x="210.0" y="476.0" font-family="Lato, 'Noto Sans', 'Liberation Sans', Helvetica, Arial, sans-serif" font-size="34" font-weight="normal" text-anchor="middle" fill="#6b7280">answer requests</text><defs><radialGradient id="bk2-sh"><stop offset="0" stop-color="#0f172a" stop-opacity="0.2"/><stop offset="0.6" stop-color="#0f172a" stop-opacity="0.070"/><stop offset="1" stop-color="#0f172a" stop-opacity="0"/></radialGradient></defs><ellipse cx="900.0" cy="358.0" rx="85.9" ry="63.2" fill="url(#bk2-sh)"/><defs><linearGradient id="bk2" x1="0" y1="0" x2="1" y2="1"><stop offset="0" stop-color="#f2f5f8"/><stop offset="1" stop-color="#e6ebf2"/></linearGradient><linearGradient id="bk2-l" x1="0" y1="0" x2="0" y2="1"><stop offset="0" stop-color="#e0e6ee"/><stop offset="1" stop-color="#aeb3ba"/></linearGradient><linearGradient id="bk2-r" x1="0" y1="0" x2="0" y2="1"><stop offset="0" stop-color="#c0c5cd"/><stop offset="1" stop-color="#8a8e94"/></linearGradient></defs><defs><clipPath id="cp4"><path d="M876.8,290.2 L968.9,343.4 Q981.1,350.4 981.1,355.8 L981.1,355.8 Q981.1,361.2 968.9,368.2 L947.5,380.6 Q935.3,387.6 923.2,380.6 L831.1,327.4 Q818.9,320.4 818.9,315.0 L818.9,315.0 Q818.9,309.6 831.1,302.6 L852.5,290.2 Q864.7,283.2 876.8,290.2 Z"/></clipPath></defs><g clip-path="url(#cp4)"><polygon points="818.9,320.4 935.3,387.6 935.3,376.8 818.9,309.6" fill="url(#bk2-l)" stroke="none" stroke-width="0" stroke-linejoin="round"/><polygon points="981.1,361.2 935.3,387.6 935.3,376.8 981.1,350.4" fill="url(#bk2-r)" stroke="none" stroke-width="0" stroke-linejoin="round"/><polygon points="864.7,283.2 981.1,350.4 935.3,376.8 818.9,309.6" fill="url(#bk2)" stroke="none" stroke-width="0" stroke-linejoin="round"/><polyline points="818.9,309.6 864.7,283.2 981.1,350.4" fill="none" stroke="#fafbfc" stroke-width="7.0" stroke-linecap="round" stroke-linejoin="round" opacity="0.65"/><polyline points="981.1,350.4 935.3,376.8 818.9,309.6" fill="none" stroke="#f9fafc" stroke-width="4.8999999999999995" stroke-linecap="round" stroke-linejoin="round" opacity="0.45"/><polyline points="935.3,376.8 935.3,387.6" fill="none" stroke="#f1f3f7" stroke-width="3.5" stroke-linecap="round" stroke-linejoin="round" opacity="0.35"/></g><defs><radialGradient id="cs5"><stop offset="0" stop-color="#0f172a" stop-opacity="0.2"/><stop offset="0.6" stop-color="#0f172a" stop-opacity="0.070"/><stop offset="1" stop-color="#0f172a" stop-opacity="0"/></radialGradient></defs><ellipse cx="868.7" cy="311.4" rx="21.7" ry="12.5" fill="url(#cs5)"/><defs><linearGradient id="ct5" x1="0" y1="0" x2="1" y2="1"><stop offset="0" stop-color="#dbeede"/><stop offset="1" stop-color="#badfc0"/></linearGradient><linearGradient id="cl5" x1="0" y1="0" x2="0" y2="1"><stop offset="0" stop-color="#a5d6ad"/><stop offset="1" stop-color="#7fa986"/></linearGradient><linearGradient id="cr5" x1="0" y1="0" x2="0" y2="1"><stop offset="0" stop-color="#8cba94"/><stop offset="1" stop-color="#66876c"/></linearGradient></defs><defs><clipPath id="cp5"><path d="M871.9,286.2 L881.3,291.6 Q886.5,294.6 886.5,300.6 L886.5,304.2 Q886.5,310.2 881.3,313.2 L871.9,318.6 Q866.7,321.6 861.5,318.6 L852.2,313.2 Q847.0,310.2 847.0,304.2 L847.0,300.6 Q847.0,294.6 852.2,291.6 L861.5,286.2 Q866.7,283.2 871.9,286.2 Z"/></clipPath></defs><g clip-path="url(#cp5)"><polygon points="847.0,310.2 866.7,321.6 866.7,306.0 847.0,294.6" fill="url(#cl5)" stroke="none" stroke-width="0" stroke-linejoin="round"/><polygon points="886.5,310.2 866.7,321.6 866.7,306.0 886.5,294.6" fill="url(#cr5)" stroke="none" stroke-width="0" stroke-linejoin="round"/><polygon points="866.7,283.2 886.5,294.6 866.7,306.0 847.0,294.6" fill="url(#ct5)" stroke="none" stroke-width="0" stroke-linejoin="round"/><polyline points="847.0,294.6 866.7,283.2 886.5,294.6" fill="none" stroke="#f1f8f2" stroke-width="4.199999999999999" stroke-linecap="round" stroke-linejoin="round" opacity="0.75"/><polyline points="886.5,294.6 866.7,306.0 847.0,294.6" fill="none" stroke="#ecf6ee" stroke-width="3.0" stroke-linecap="round" stroke-linejoin="round" opacity="0.45"/><polyline points="866.7,306.0 866.7,321.6" fill="none" stroke="#d4ebd8" stroke-width="2.0999999999999996" stroke-linecap="round" stroke-linejoin="round" opacity="0.35"/><defs><radialGradient id="hl5"><stop offset="0" stop-color="#ffffff" stop-opacity="0.55"/><stop offset="1" stop-color="#ffffff" stop-opacity="0"/></radialGradient></defs><ellipse cx="863.8" cy="291.9" rx="11.8" ry="6.4" fill="url(#hl5)"/></g><defs><radialGradient id="cs6"><stop offset="0" stop-color="#0f172a" stop-opacity="0.2"/><stop offset="0.6" stop-color="#0f172a" stop-opacity="0.070"/><stop offset="1" stop-color="#0f172a" stop-opacity="0"/></radialGradient></defs><ellipse cx="897.8" cy="328.2" rx="21.7" ry="12.5" fill="url(#cs6)"/><defs><linearGradient id="ct6" x1="0" y1="0" x2="1" y2="1"><stop offset="0" stop-color="#dbeede"/><stop offset="1" stop-color="#badfc0"/></linearGradient><linearGradient id="cl6" x1="0" y1="0" x2="0" y2="1"><stop offset="0" stop-color="#a5d6ad"/><stop offset="1" stop-color="#7fa986"/></linearGradient><linearGradient id="cr6" x1="0" y1="0" x2="0" y2="1"><stop offset="0" stop-color="#8cba94"/><stop offset="1" stop-color="#66876c"/></linearGradient></defs><defs><clipPath id="cp6"><path d="M901.0,303.0 L910.4,308.4 Q915.6,311.4 915.6,317.4 L915.6,321.0 Q915.6,327.0 910.4,330.0 L901.0,335.4 Q895.8,338.4 890.6,335.4 L881.3,330.0 Q876.1,327.0 876.1,321.0 L876.1,317.4 Q876.1,311.4 881.3,308.4 L890.6,303.0 Q895.8,300.0 901.0,303.0 Z"/></clipPath></defs><g clip-path="url(#cp6)"><polygon points="876.1,327.0 895.8,338.4 895.8,322.8 876.1,311.4" fill="url(#cl6)" stroke="none" stroke-width="0" stroke-linejoin="round"/><polygon points="915.6,327.0 895.8,338.4 895.8,322.8 915.6,311.4" fill="url(#cr6)" stroke="none" stroke-width="0" stroke-linejoin="round"/><polygon points="895.8,300.0 915.6,311.4 895.8,322.8 876.1,311.4" fill="url(#ct6)" stroke="none" stroke-width="0" stroke-linejoin="round"/><polyline points="876.1,311.4 895.8,300.0 915.6,311.4" fill="none" stroke="#f1f8f2" stroke-width="4.199999999999999" stroke-linecap="round" stroke-linejoin="round" opacity="0.75"/><polyline points="915.6,311.4 895.8,322.8 876.1,311.4" fill="none" stroke="#ecf6ee" stroke-width="3.0" stroke-linecap="round" stroke-linejoin="round" opacity="0.45"/><polyline points="895.8,322.8 895.8,338.4" fill="none" stroke="#d4ebd8" stroke-width="2.0999999999999996" stroke-linecap="round" stroke-linejoin="round" opacity="0.35"/><defs><radialGradient id="hl6"><stop offset="0" stop-color="#ffffff" stop-opacity="0.55"/><stop offset="1" stop-color="#ffffff" stop-opacity="0"/></radialGradient></defs><ellipse cx="892.9" cy="308.7" rx="11.8" ry="6.4" fill="url(#hl6)"/></g><defs><radialGradient id="cs7"><stop offset="0" stop-color="#0f172a" stop-opacity="0.2"/><stop offset="0.6" stop-color="#0f172a" stop-opacity="0.070"/><stop offset="1" stop-color="#0f172a" stop-opacity="0"/></radialGradient></defs><ellipse cx="926.9" cy="345.0" rx="21.7" ry="12.5" fill="url(#cs7)"/><defs><linearGradient id="ct7" x1="0" y1="0" x2="1" y2="1"><stop offset="0" stop-color="#dbeede"/><stop offset="1" stop-color="#badfc0"/></linearGradient><linearGradient id="cl7" x1="0" y1="0" x2="0" y2="1"><stop offset="0" stop-color="#a5d6ad"/><stop offset="1" stop-color="#7fa986"/></linearGradient><linearGradient id="cr7" x1="0" y1="0" x2="0" y2="1"><stop offset="0" stop-color="#8cba94"/><stop offset="1" stop-color="#66876c"/></linearGradient></defs><defs><clipPath id="cp7"><path d="M930.1,319.8 L939.5,325.2 Q944.7,328.2 944.7,334.2 L944.7,337.8 Q944.7,343.8 939.5,346.8 L930.1,352.2 Q924.9,355.2 919.7,352.2 L910.4,346.8 Q905.2,343.8 905.2,337.8 L905.2,334.2 Q905.2,328.2 910.4,325.2 L919.7,319.8 Q924.9,316.8 930.1,319.8 Z"/></clipPath></defs><g clip-path="url(#cp7)"><polygon points="905.2,343.8 924.9,355.2 924.9,339.6 905.2,328.2" fill="url(#cl7)" stroke="none" stroke-width="0" stroke-linejoin="round"/><polygon points="944.7,343.8 924.9,355.2 924.9,339.6 944.7,328.2" fill="url(#cr7)" stroke="none" stroke-width="0" stroke-linejoin="round"/><polygon points="924.9,316.8 944.7,328.2 924.9,339.6 905.2,328.2" fill="url(#ct7)" stroke="none" stroke-width="0" stroke-linejoin="round"/><polyline points="905.2,328.2 924.9,316.8 944.7,328.2" fill="none" stroke="#f1f8f2" stroke-width="4.199999999999999" stroke-linecap="round" stroke-linejoin="round" opacity="0.75"/><polyline points="944.7,328.2 924.9,339.6 905.2,328.2" fill="none" stroke="#ecf6ee" stroke-width="3.0" stroke-linecap="round" stroke-linejoin="round" opacity="0.45"/><polyline points="924.9,339.6 924.9,355.2" fill="none" stroke="#d4ebd8" stroke-width="2.0999999999999996" stroke-linecap="round" stroke-linejoin="round" opacity="0.35"/><defs><radialGradient id="hl7"><stop offset="0" stop-color="#ffffff" stop-opacity="0.55"/><stop offset="1" stop-color="#ffffff" stop-opacity="0"/></radialGradient></defs><ellipse cx="922.0" cy="325.5" rx="11.8" ry="6.4" fill="url(#hl7)"/></g><text x="900.0" y="442.0" font-family="Lato, 'Noto Sans', 'Liberation Sans', Helvetica, Arial, sans-serif" font-size="36" font-weight="bold" text-anchor="middle" fill="#1f2937">task workers</text><text x="900.0" y="476.0" font-family="Lato, 'Noto Sans', 'Liberation Sans', Helvetica, Arial, sans-serif" font-size="34" font-weight="normal" text-anchor="middle" fill="#6b7280">execute work</text><defs><radialGradient id="redis1-cs"><stop offset="0" stop-color="#0f172a" stop-opacity="0.16"/><stop offset="0.6" stop-color="#0f172a" stop-opacity="0.056"/><stop offset="1" stop-color="#0f172a" stop-opacity="0"/></radialGradient></defs><ellipse cx="555.0" cy="398.0" rx="115.0" ry="11.0" fill="url(#redis1-cs)"/><defs><linearGradient id="redis1" x1="0" y1="0" x2="0.25" y2="1"><stop offset="0" stop-color="#f8ecd2"/><stop offset="1" stop-color="#cebb8f"/></linearGradient></defs><rect x="440.0" y="316.0" width="230.0" height="78.0" rx="18.0" fill="url(#redis1)"/><path d="M452.6,318.6 L657.4,318.6" stroke="#fdf9f2" stroke-width="2.8" stroke-linecap="round" opacity="0.75" fill="none"/><text x="555.0" y="350.0" font-family="Lato, 'Noto Sans', 'Liberation Sans', Helvetica, Arial, sans-serif" font-size="36" font-weight="bold" text-anchor="middle" fill="#5b4a1f">Redis</text><text x="555.0" y="380.0" font-family="Lato, 'Noto Sans', 'Liberation Sans', Helvetica, Arial, sans-serif" font-size="26" font-weight="normal" text-anchor="middle" fill="#5b4a1f">work in flight</text><path d="M340.0,355.0 Q386.0,355.0 418.0,355.0" fill="none" stroke="#6b7280" stroke-width="3.2" stroke-linecap="round"/><polygon points="432.0,355.0 412.0,364.0 412.0,346.0" fill="#6b7280"/><path d="M678.0,355.0 Q724.0,355.0 756.0,355.0" fill="none" stroke="#6b7280" stroke-width="3.2" stroke-linecap="round"/><polygon points="770.0,355.0 750.0,364.0 750.0,346.0" fill="#6b7280"/><defs><radialGradient id="sched-cs"><stop offset="0" stop-color="#0f172a" stop-opacity="0.16"/><stop offset="0.6" stop-color="#0f172a" stop-opacity="0.056"/><stop offset="1" stop-color="#0f172a" stop-opacity="0"/></radialGradient></defs><ellipse cx="555.0" cy="278.0" rx="85.0" ry="11.0" fill="url(#sched-cs)"/><defs><linearGradient id="sched" x1="0" y1="0" x2="0.25" y2="1"><stop offset="0" stop-color="#f2f4f6"/><stop offset="1" stop-color="#c6c8cd"/></linearGradient></defs><rect x="470.0" y="222.0" width="170.0" height="52.0" rx="16.0" fill="url(#sched)"/><path d="M481.2,224.6 L628.8,224.6" stroke="#fbfcfc" stroke-width="2.8" stroke-linecap="round" opacity="0.75" fill="none"/><text x="555.0" y="257.0" font-family="Lato, 'Noto Sans', 'Liberation Sans', Helvetica, Arial, sans-serif" font-size="26" font-weight="bold" text-anchor="middle" fill="#23384d">scheduler</text><path d="M555.0,278.0 Q555.0,294.0 555.0,296.0" fill="none" stroke="#6b7280" stroke-width="3.2" stroke-linecap="round"/><polygon points="555.0,310.0 546.0,290.0 564.0,290.0" fill="#6b7280"/><rect x="1100" y="196" width="360" height="330" rx="26" fill="#eef3fa" stroke="#d3deec" stroke-width="3"/><text x="1134.0" y="236.0" font-family="Lato, 'Noto Sans', 'Liberation Sans', Helvetica, Arial, sans-serif" font-size="34" font-weight="bold" text-anchor="start" fill="#6b7280">DIRAC</text><defs><radialGradient id="bk3-sh"><stop offset="0" stop-color="#0f172a" stop-opacity="0.2"/><stop offset="0.6" stop-color="#0f172a" stop-opacity="0.070"/><stop offset="1" stop-color="#0f172a" stop-opacity="0"/></radialGradient></defs><ellipse cx="1280.0" cy="358.0" rx="85.9" ry="63.2" fill="url(#bk3-sh)"/><defs><linearGradient id="bk3" x1="0" y1="0" x2="1" y2="1"><stop offset="0" stop-color="#f2f5f8"/><stop offset="1" stop-color="#e6ebf2"/></linearGradient><linearGradient id="bk3-l" x1="0" y1="0" x2="0" y2="1"><stop offset="0" stop-color="#e0e6ee"/><stop offset="1" stop-color="#aeb3ba"/></linearGradient><linearGradient id="bk3-r" x1="0" y1="0" x2="0" y2="1"><stop offset="0" stop-color="#c0c5cd"/><stop offset="1" stop-color="#8a8e94"/></linearGradient></defs><defs><clipPath id="cp8"><path d="M1256.8,290.2 L1348.9,343.4 Q1361.1,350.4 1361.1,355.8 L1361.1,355.8 Q1361.1,361.2 1348.9,368.2 L1327.5,380.6 Q1315.3,387.6 1303.2,380.6 L1211.1,327.4 Q1198.9,320.4 1198.9,315.0 L1198.9,315.0 Q1198.9,309.6 1211.1,302.6 L1232.5,290.2 Q1244.7,283.2 1256.8,290.2 Z"/></clipPath></defs><g clip-path="url(#cp8)"><polygon points="1198.9,320.4 1315.3,387.6 1315.3,376.8 1198.9,309.6" fill="url(#bk3-l)" stroke="none" stroke-width="0" stroke-linejoin="round"/><polygon points="1361.1,361.2 1315.3,387.6 1315.3,376.8 1361.1,350.4" fill="url(#bk3-r)" stroke="none" stroke-width="0" stroke-linejoin="round"/><polygon points="1244.7,283.2 1361.1,350.4 1315.3,376.8 1198.9,309.6" fill="url(#bk3)" stroke="none" stroke-width="0" stroke-linejoin="round"/><polyline points="1198.9,309.6 1244.7,283.2 1361.1,350.4" fill="none" stroke="#fafbfc" stroke-width="7.0" stroke-linecap="round" stroke-linejoin="round" opacity="0.65"/><polyline points="1361.1,350.4 1315.3,376.8 1198.9,309.6" fill="none" stroke="#f9fafc" stroke-width="4.8999999999999995" stroke-linecap="round" stroke-linejoin="round" opacity="0.45"/><polyline points="1315.3,376.8 1315.3,387.6" fill="none" stroke="#f1f3f7" stroke-width="3.5" stroke-linecap="round" stroke-linejoin="round" opacity="0.35"/></g><defs><radialGradient id="cs9"><stop offset="0" stop-color="#0f172a" stop-opacity="0.2"/><stop offset="0.6" stop-color="#0f172a" stop-opacity="0.070"/><stop offset="1" stop-color="#0f172a" stop-opacity="0"/></radialGradient></defs><ellipse cx="1248.7" cy="311.4" rx="21.7" ry="12.5" fill="url(#cs9)"/><defs><linearGradient id="ct9" x1="0" y1="0" x2="1" y2="1"><stop offset="0" stop-color="#e0e8f4"/><stop offset="1" stop-color="#c4d4eb"/></linearGradient><linearGradient id="cl9" x1="0" y1="0" x2="0" y2="1"><stop offset="0" stop-color="#b2c7e5"/><stop offset="1" stop-color="#8a9cb6"/></linearGradient><linearGradient id="cr9" x1="0" y1="0" x2="0" y2="1"><stop offset="0" stop-color="#98acc8"/><stop offset="1" stop-color="#6f7d91"/></linearGradient></defs><defs><clipPath id="cp9"><path d="M1251.9,286.2 L1261.3,291.6 Q1266.5,294.6 1266.5,300.6 L1266.5,304.2 Q1266.5,310.2 1261.3,313.2 L1251.9,318.6 Q1246.7,321.6 1241.5,318.6 L1232.2,313.2 Q1227.0,310.2 1227.0,304.2 L1227.0,300.6 Q1227.0,294.6 1232.2,291.6 L1241.5,286.2 Q1246.7,283.2 1251.9,286.2 Z"/></clipPath></defs><g clip-path="url(#cp9)"><polygon points="1227.0,310.2 1246.7,321.6 1246.7,306.0 1227.0,294.6" fill="url(#cl9)" stroke="none" stroke-width="0" stroke-linejoin="round"/><polygon points="1266.5,310.2 1246.7,321.6 1246.7,306.0 1266.5,294.6" fill="url(#cr9)" stroke="none" stroke-width="0" stroke-linejoin="round"/><polygon points="1246.7,283.2 1266.5,294.6 1246.7,306.0 1227.0,294.6" fill="url(#ct9)" stroke="none" stroke-width="0" stroke-linejoin="round"/><polyline points="1227.0,294.6 1246.7,283.2 1266.5,294.6" fill="none" stroke="#f3f6fb" stroke-width="4.199999999999999" stroke-linecap="round" stroke-linejoin="round" opacity="0.75"/><polyline points="1266.5,294.6 1246.7,306.0 1227.0,294.6" fill="none" stroke="#eff3f9" stroke-width="3.0" stroke-linecap="round" stroke-linejoin="round" opacity="0.45"/><polyline points="1246.7,306.0 1246.7,321.6" fill="none" stroke="#dae4f2" stroke-width="2.0999999999999996" stroke-linecap="round" stroke-linejoin="round" opacity="0.35"/><defs><radialGradient id="hl9"><stop offset="0" stop-color="#ffffff" stop-opacity="0.55"/><stop offset="1" stop-color="#ffffff" stop-opacity="0"/></radialGradient></defs><ellipse cx="1243.8" cy="291.9" rx="11.8" ry="6.4" fill="url(#hl9)"/></g><defs><radialGradient id="cs10"><stop offset="0" stop-color="#0f172a" stop-opacity="0.2"/><stop offset="0.6" stop-color="#0f172a" stop-opacity="0.070"/><stop offset="1" stop-color="#0f172a" stop-opacity="0"/></radialGradient></defs><ellipse cx="1277.8" cy="328.2" rx="21.7" ry="12.5" fill="url(#cs10)"/><defs><linearGradient id="ct10" x1="0" y1="0" x2="1" y2="1"><stop offset="0" stop-color="#e0e8f4"/><stop offset="1" stop-color="#c4d4eb"/></linearGradient><linearGradient id="cl10" x1="0" y1="0" x2="0" y2="1"><stop offset="0" stop-color="#b2c7e5"/><stop offset="1" stop-color="#8a9cb6"/></linearGradient><linearGradient id="cr10" x1="0" y1="0" x2="0" y2="1"><stop offset="0" stop-color="#98acc8"/><stop offset="1" stop-color="#6f7d91"/></linearGradient></defs><defs><clipPath id="cp10"><path d="M1281.0,303.0 L1290.4,308.4 Q1295.6,311.4 1295.6,317.4 L1295.6,321.0 Q1295.6,327.0 1290.4,330.0 L1281.0,335.4 Q1275.8,338.4 1270.6,335.4 L1261.3,330.0 Q1256.1,327.0 1256.1,321.0 L1256.1,317.4 Q1256.1,311.4 1261.3,308.4 L1270.6,303.0 Q1275.8,300.0 1281.0,303.0 Z"/></clipPath></defs><g clip-path="url(#cp10)"><polygon points="1256.1,327.0 1275.8,338.4 1275.8,322.8 1256.1,311.4" fill="url(#cl10)" stroke="none" stroke-width="0" stroke-linejoin="round"/><polygon points="1295.6,327.0 1275.8,338.4 1275.8,322.8 1295.6,311.4" fill="url(#cr10)" stroke="none" stroke-width="0" stroke-linejoin="round"/><polygon points="1275.8,300.0 1295.6,311.4 1275.8,322.8 1256.1,311.4" fill="url(#ct10)" stroke="none" stroke-width="0" stroke-linejoin="round"/><polyline points="1256.1,311.4 1275.8,300.0 1295.6,311.4" fill="none" stroke="#f3f6fb" stroke-width="4.199999999999999" stroke-linecap="round" stroke-linejoin="round" opacity="0.75"/><polyline points="1295.6,311.4 1275.8,322.8 1256.1,311.4" fill="none" stroke="#eff3f9" stroke-width="3.0" stroke-linecap="round" stroke-linejoin="round" opacity="0.45"/><polyline points="1275.8,322.8 1275.8,338.4" fill="none" stroke="#dae4f2" stroke-width="2.0999999999999996" stroke-linecap="round" stroke-linejoin="round" opacity="0.35"/><defs><radialGradient id="hl10"><stop offset="0" stop-color="#ffffff" stop-opacity="0.55"/><stop offset="1" stop-color="#ffffff" stop-opacity="0"/></radialGradient></defs><ellipse cx="1272.9" cy="308.7" rx="11.8" ry="6.4" fill="url(#hl10)"/></g><defs><radialGradient id="cs11"><stop offset="0" stop-color="#0f172a" stop-opacity="0.2"/><stop offset="0.6" stop-color="#0f172a" stop-opacity="0.070"/><stop offset="1" stop-color="#0f172a" stop-opacity="0"/></radialGradient></defs><ellipse cx="1306.9" cy="345.0" rx="21.7" ry="12.5" fill="url(#cs11)"/><defs><linearGradient id="ct11" x1="0" y1="0" x2="1" y2="1"><stop offset="0" stop-color="#e0e8f4"/><stop offset="1" stop-color="#c4d4eb"/></linearGradient><linearGradient id="cl11" x1="0" y1="0" x2="0" y2="1"><stop offset="0" stop-color="#b2c7e5"/><stop offset="1" stop-color="#8a9cb6"/></linearGradient><linearGradient id="cr11" x1="0" y1="0" x2="0" y2="1"><stop offset="0" stop-color="#98acc8"/><stop offset="1" stop-color="#6f7d91"/></linearGradient></defs><defs><clipPath id="cp11"><path d="M1310.1,319.8 L1319.5,325.2 Q1324.7,328.2 1324.7,334.2 L1324.7,337.8 Q1324.7,343.8 1319.5,346.8 L1310.1,352.2 Q1304.9,355.2 1299.7,352.2 L1290.4,346.8 Q1285.2,343.8 1285.2,337.8 L1285.2,334.2 Q1285.2,328.2 1290.4,325.2 L1299.7,319.8 Q1304.9,316.8 1310.1,319.8 Z"/></clipPath></defs><g clip-path="url(#cp11)"><polygon points="1285.2,343.8 1304.9,355.2 1304.9,339.6 1285.2,328.2" fill="url(#cl11)" stroke="none" stroke-width="0" stroke-linejoin="round"/><polygon points="1324.7,343.8 1304.9,355.2 1304.9,339.6 1324.7,328.2" fill="url(#cr11)" stroke="none" stroke-width="0" stroke-linejoin="round"/><polygon points="1304.9,316.8 1324.7,328.2 1304.9,339.6 1285.2,328.2" fill="url(#ct11)" stroke="none" stroke-width="0" stroke-linejoin="round"/><polyline points="1285.2,328.2 1304.9,316.8 1324.7,328.2" fill="none" stroke="#f3f6fb" stroke-width="4.199999999999999" stroke-linecap="round" stroke-linejoin="round" opacity="0.75"/><polyline points="1324.7,328.2 1304.9,339.6 1285.2,328.2" fill="none" stroke="#eff3f9" stroke-width="3.0" stroke-linecap="round" stroke-linejoin="round" opacity="0.45"/><polyline points="1304.9,339.6 1304.9,355.2" fill="none" stroke="#dae4f2" stroke-width="2.0999999999999996" stroke-linecap="round" stroke-linejoin="round" opacity="0.35"/><defs><radialGradient id="hl11"><stop offset="0" stop-color="#ffffff" stop-opacity="0.55"/><stop offset="1" stop-color="#ffffff" stop-opacity="0"/></radialGradient></defs><ellipse cx="1302.0" cy="325.5" rx="11.8" ry="6.4" fill="url(#hl11)"/></g><text x="1280.0" y="442.0" font-family="Lato, 'Noto Sans', 'Liberation Sans', Helvetica, Arial, sans-serif" font-size="36" font-weight="bold" text-anchor="middle" fill="#1f2937">services</text><text x="1280.0" y="476.0" font-family="Lato, 'Noto Sans', 'Liberation Sans', Helvetica, Arial, sans-serif" font-size="34" font-weight="normal" text-anchor="middle" fill="#6b7280">not yet migrated</text><path d="M429.0,134.0 Q364.5,173.0 313.4,188.0" fill="none" stroke="#6b7280" stroke-width="3.2" stroke-linecap="round"/><polygon points="300.0,192.0 316.6,177.7 321.7,195.0" fill="#6b7280"/><path d="M1071.0,134.0 Q1175.5,173.0 1266.2,189.5" fill="none" stroke="#6b7280" stroke-width="3.2" stroke-linecap="round"/><polygon points="1280.0,192.0 1258.7,197.3 1261.9,179.6" fill="#6b7280"/><text x="750.0" y="172.0" font-family="Lato, 'Noto Sans', 'Liberation Sans', Helvetica, Arial, sans-serif" font-size="26" font-weight="normal" font-style="italic" text-anchor="middle" fill="#6b7280">one side or the other, per component</text><path d="M740.0,530.0 Q740.0,549.0 740.0,554.0" fill="none" stroke="#6b7280" stroke-width="3.2" stroke-linecap="round"/><polygon points="740.0,568.0 731.0,548.0 749.0,548.0" fill="#6b7280"/><path d="M1280.0,530.0 Q1280.0,549.0 1280.0,554.0" fill="none" stroke="#6b7280" stroke-width="3.2" stroke-linecap="round"/><polygon points="1280.0,568.0 1271.0,548.0 1289.0,548.0" fill="#6b7280"/><rect x="40" y="574" width="1420" height="126" rx="26" fill="#f6f7f9" stroke="#dde2e9" stroke-width="3"/><defs><radialGradient id="st4-cs"><stop offset="0" stop-color="#0f172a" stop-opacity="0.16"/><stop offset="0.6" stop-color="#0f172a" stop-opacity="0.056"/><stop offset="1" stop-color="#0f172a" stop-opacity="0"/></radialGradient></defs><ellipse cx="280.0" cy="656.0" rx="200.0" ry="11.0" fill="url(#st4-cs)"/><defs><linearGradient id="st4" x1="0" y1="0" x2="0.25" y2="1"><stop offset="0" stop-color="#f2f4f6"/><stop offset="1" stop-color="#c6c8cd"/></linearGradient></defs><rect x="80.0" y="592.0" width="400.0" height="60.0" rx="20.0" fill="url(#st4)"/><path d="M94.0,594.6 L466.0,594.6" stroke="#fbfcfc" stroke-width="2.8" stroke-linecap="round" opacity="0.75" fill="none"/><text x="280.0" y="631.0" font-family="Lato, 'Noto Sans', 'Liberation Sans', Helvetica, Arial, sans-serif" font-size="36" font-weight="bold" text-anchor="middle" fill="#23384d">OpenTelemetry</text><text x="280.0" y="680.0" font-family="Lato, 'Noto Sans', 'Liberation Sans', Helvetica, Arial, sans-serif" font-size="34" font-weight="normal" text-anchor="middle" fill="#6b7280">metrics, traces</text><defs><radialGradient id="st3-cs"><stop offset="0" stop-color="#0f172a" stop-opacity="0.16"/><stop offset="0.6" stop-color="#0f172a" stop-opacity="0.056"/><stop offset="1" stop-color="#0f172a" stop-opacity="0"/></radialGradient></defs><ellipse cx="740.0" cy="656.0" rx="200.0" ry="11.0" fill="url(#st3-cs)"/><defs><linearGradient id="st3" x1="0" y1="0" x2="0.25" y2="1"><stop offset="0" stop-color="#e2e7ed"/><stop offset="1" stop-color="#aab2bc"/></linearGradient></defs><rect x="540.0" y="592.0" width="400.0" height="60.0" rx="20.0" fill="url(#st3)"/><path d="M554.0,594.6 L926.0,594.6" stroke="#f6f8fa" stroke-width="2.8" stroke-linecap="round" opacity="0.75" fill="none"/><text x="740.0" y="631.0" font-family="Lato, 'Noto Sans', 'Liberation Sans', Helvetica, Arial, sans-serif" font-size="36" font-weight="bold" text-anchor="middle" fill="#23384d">object store</text><text x="740.0" y="680.0" font-family="Lato, 'Noto Sans', 'Liberation Sans', Helvetica, Arial, sans-serif" font-size="34" font-weight="normal" text-anchor="middle" fill="#6b7280">sandboxes</text><defs><radialGradient id="st1-cs"><stop offset="0" stop-color="#0f172a" stop-opacity="0.16"/><stop offset="0.6" stop-color="#0f172a" stop-opacity="0.056"/><stop offset="1" stop-color="#0f172a" stop-opacity="0"/></radialGradient></defs><ellipse cx="1210.0" cy="656.0" rx="210.0" ry="11.0" fill="url(#st1-cs)"/><defs><linearGradient id="st1" x1="0" y1="0" x2="0.25" y2="1"><stop offset="0" stop-color="#e2e7ed"/><stop offset="1" stop-color="#aab2bc"/></linearGradient></defs><rect x="1000.0" y="592.0" width="420.0" height="60.0" rx="20.0" fill="url(#st1)"/><path d="M1014.0,594.6 L1406.0,594.6" stroke="#f6f8fa" stroke-width="2.8" stroke-linecap="round" opacity="0.75" fill="none"/><text x="1210.0" y="631.0" font-family="Lato, 'Noto Sans', 'Liberation Sans', Helvetica, Arial, sans-serif" font-size="36" font-weight="bold" text-anchor="middle" fill="#23384d">databases</text><text x="1210.0" y="680.0" font-family="Lato, 'Noto Sans', 'Liberation Sans', Helvetica, Arial, sans-serif" font-size="34" font-weight="normal" text-anchor="middle" fill="#6b7280">shared with DIRAC</text></svg>